<svg width="25" height="25" viewBox="0 0 25 25" fill="none" xmlns="http://www.w3.org/2000/svg">
<path d="M4.88281 14.6484C5.42215 14.6484 5.85938 14.2112 5.85938 13.6719C5.85938 13.1325 5.42215 12.6953 4.88281 12.6953C4.34347 12.6953 3.90625 13.1325 3.90625 13.6719C3.90625 14.2112 4.34347 14.6484 4.88281 14.6484Z" fill="#FF7A00"/>
<path d="M24.0234 16.4551C24.5628 16.4551 25 16.0179 25 15.4785V11.1328C25 10.7805 24.8103 10.4555 24.5035 10.2824C24.1966 10.1092 23.8204 10.1146 23.5187 10.2967L19.58 12.6742C19.5726 11.2964 18.8476 10.086 17.7611 9.39609C18.8758 8.41123 19.5801 6.97197 19.5801 5.37109C19.5801 2.40947 17.1706 0 14.209 0C11.2558 0 8.8519 2.39575 8.83823 5.3458C8.40962 3.32646 6.61294 1.80664 4.46777 1.80664C2.00425 1.80664 0 3.81089 0 6.27441C0 7.60288 0.583008 8.79751 1.50635 9.6166C0.590527 10.3321 0 11.4457 0 12.6953V21.0938C0 23.2477 1.75234 25 3.90625 25H15.6738C17.8277 25 19.5801 23.2477 19.5801 21.0938V21.0527L23.5243 23.3979C23.8262 23.5774 24.2011 23.581 24.5063 23.4074C24.8115 23.2338 25 22.9097 25 22.5586V20.3613C25 19.822 24.5628 19.3848 24.0234 19.3848C23.4841 19.3848 23.0469 19.822 23.0469 20.3613V20.8418L19.1026 18.4966C18.8008 18.317 18.4259 18.3136 18.1207 18.4871C17.8155 18.6607 17.627 18.9848 17.627 19.3359V21.0938C17.627 22.1707 16.7508 23.0469 15.6738 23.0469H3.90625C2.8293 23.0469 1.95312 22.1707 1.95312 21.0938V12.6953C1.95312 11.6184 2.8293 10.7422 3.90625 10.7422H15.6738C16.7508 10.7422 17.627 11.6184 17.627 12.6953V14.4043C17.627 14.7566 17.8167 15.0815 18.1235 15.2547C18.4303 15.4279 18.8065 15.4225 19.1082 15.2403L23.0469 12.8629V15.4785C23.0469 16.0179 23.4841 16.4551 24.0234 16.4551ZM4.46777 8.78906C3.0812 8.78906 1.95312 7.66099 1.95312 6.27441C1.95312 4.88784 3.0812 3.75977 4.46777 3.75977C5.85435 3.75977 6.98242 4.88784 6.98242 6.27441C6.98242 7.66099 5.85435 8.78906 4.46777 8.78906ZM8.15869 8.78906C8.6293 8.10049 8.91255 7.27427 8.93413 6.38423C9.10693 7.28564 9.50542 8.10781 10.0688 8.78906H8.15869ZM14.209 8.78906C12.3243 8.78906 10.791 7.25576 10.791 5.37109C10.791 3.48643 12.3243 1.95312 14.209 1.95312C16.0937 1.95312 17.627 3.48643 17.627 5.37109C17.627 7.25576 16.0937 8.78906 14.209 8.78906Z" fill="#FF7A00"/>
<path d="M9.23 15.69V12.39H10.76V15.69H14.06V17.22H10.76V20.52H9.23V17.22H5.93V15.69H9.23Z" fill="#FF7A00"/>
</svg>
