<svg width="25" height="23" viewBox="0 0 25 23" fill="none" xmlns="http://www.w3.org/2000/svg">
<path d="M12.6605 8.27802C11.2521 8.27802 10.1104 9.41973 10.1104 10.8282C10.1104 12.2365 11.2521 13.3783 12.6605 13.3783C14.0689 13.3783 15.2107 12.2366 15.2107 10.8282C15.2107 9.41973 14.0689 8.27802 12.6605 8.27802ZM12.6605 12.1639C11.9228 12.1639 11.3247 11.5658 11.3247 10.8281C11.3247 10.0904 11.9228 9.49231 12.6605 9.49231C13.3983 9.49231 13.9963 10.0904 13.9963 10.8281C13.9963 11.5658 13.3983 12.1639 12.6605 12.1639Z" fill="#FF7A00"/>
<path d="M22.8306 2.44912L6.25474 0.566929C5.61142 0.475466 4.95962 0.663272 4.4636 1.08305C3.96765 1.46761 3.64974 2.03765 3.5832 2.66168L3.27964 5.1511H2.33846C1.00267 5.1511 0.000820427 6.33506 0.000820427 7.67086V20.0875C-0.0328243 21.3613 0.972509 22.4213 2.24636 22.4549C2.27704 22.4557 2.30778 22.4559 2.33846 22.4555H19.0053C20.3411 22.4555 21.5555 21.4233 21.5555 20.0875V19.6018C21.9696 19.5218 22.3625 19.3564 22.7091 19.1161C23.201 18.7019 23.5159 18.1154 23.5895 17.4767L24.986 5.1511C25.1284 3.81223 24.1676 2.60781 22.8306 2.44912ZM20.3411 20.0875C20.3411 20.7554 19.6732 21.2412 19.0053 21.2412H2.33846C1.73512 21.2589 1.23167 20.7841 1.21395 20.1808C1.21302 20.1497 1.21343 20.1186 1.21517 20.0875V17.841L5.92079 14.3801C6.48606 13.9461 7.28227 13.9847 7.80303 14.4712L11.1121 17.3856C11.6147 17.8075 12.2472 18.0434 12.9033 18.0535C13.4163 18.0598 13.9209 17.9232 14.3606 17.6588L20.3412 14.198V20.0875H20.3411ZM20.3411 12.7711L13.7229 16.6267C13.1546 16.9633 12.4353 16.9024 11.9318 16.4749L8.59232 13.5301C7.63522 12.7076 6.23632 12.6572 5.2225 13.4086L1.21517 16.323V7.67086C1.21517 7.00296 1.67056 6.36545 2.33846 6.36545H19.0053C19.7189 6.39503 20.2952 6.95822 20.3411 7.67086V12.7711ZM23.7728 4.98718C23.7724 4.99119 23.7721 4.99526 23.7716 4.99927L22.3448 17.3249C22.3472 17.6445 22.2015 17.9472 21.9501 18.1446C21.8287 18.266 21.5554 18.3267 21.5554 18.3875V7.67086C21.5075 6.28782 20.3888 5.18243 19.0053 5.1511H4.49394L4.76716 2.78313C4.82643 2.47649 4.98675 2.19861 5.22256 1.99378C5.48881 1.80969 5.81073 1.72387 6.13335 1.75089L22.6788 3.66347C23.3464 3.72687 23.8362 4.31951 23.7728 4.98718Z" fill="#FF7A00"/>
</svg>
