<svg width="25" height="25" viewBox="0 0 25 25" fill="none" xmlns="http://www.w3.org/2000/svg">
<g clip-path="url(#clip0)">
<path d="M24.7384 11.8682L22.9536 10.0833L13.1317 0.261447C12.7831 -0.0871489 12.2178 -0.0871489 11.8692 0.261447L2.0473 10.0833L0.261525 11.8691C-0.0810543 12.2238 -0.0712708 12.7891 0.283446 13.1316C0.629478 13.4659 1.17803 13.4659 1.52407 13.1316L1.78477 12.8691V24.1071C1.78477 24.6003 2.18453 25 2.67768 25H22.3214C22.8146 25 23.2143 24.6003 23.2143 24.1071V12.8691L23.4759 13.1308C23.8306 13.4733 24.3959 13.4635 24.7384 13.1088C25.0727 12.7628 25.0727 12.2142 24.7384 11.8682ZM15.1783 23.2142H9.82088V16.071H15.1783V23.2142ZM21.4285 23.2142H16.964V15.1782C16.964 14.685 16.5643 14.2853 16.0711 14.2853H8.92797C8.43482 14.2853 8.03505 14.685 8.03505 15.1782V23.2142H3.57059V11.0833L12.4995 2.15437L21.4285 11.0833V23.2142Z" fill="white"/>
</g>
<defs>
<clipPath id="clip0">
<rect width="25" height="25" fill="white"/>
</clipPath>
</defs>
</svg>
