<svg width="126" height="55" viewBox="0 0 126 55" fill="none" xmlns="http://www.w3.org/2000/svg">
<path d="M101.274 41.3908C99.1881 41.3908 97.5979 40.7001 96.503 39.3187C95.4081 37.9066 94.8606 35.8959 94.8606 33.2866V8.69778H99.162V33.655C99.162 34.7601 99.3445 35.5583 99.7094 36.0494C100.1 36.5406 100.648 36.7862 101.352 36.7862C102.056 36.7862 102.59 36.5406 102.955 36.0494C103.346 35.5583 103.542 34.7601 103.542 33.655V8.69778H107.687V33.2866C107.687 35.8959 107.139 37.9066 106.044 39.3187C104.949 40.7001 103.359 41.3908 101.274 41.3908ZM110.75 8.69778H117.241C119.457 8.69778 121.073 9.31174 122.09 10.5396C123.106 11.7369 123.615 13.5941 123.615 16.1113V17.4006C123.615 19.0583 123.38 20.409 122.911 21.4527C122.468 22.4964 121.777 23.2485 120.838 23.709V23.8011C122.976 24.6606 124.045 26.9015 124.045 30.5238V33.2866C124.045 35.7731 123.484 37.6764 122.363 38.9964C121.268 40.2857 119.652 40.9304 117.515 40.9304H110.75V8.69778ZM116.732 21.8211C117.593 21.8211 118.231 21.5601 118.649 21.0383C119.092 20.5164 119.313 19.6415 119.313 18.4136V16.6178C119.313 15.4513 119.131 14.6071 118.766 14.0852C118.427 13.5634 117.88 13.3024 117.124 13.3024H115.051V21.8211H116.732ZM117.515 36.3257C118.271 36.3257 118.831 36.0955 119.196 35.635C119.561 35.1438 119.743 34.315 119.743 33.1485V30.3397C119.743 28.8662 119.522 27.8531 119.079 27.3006C118.662 26.7173 117.958 26.4257 116.967 26.4257H115.051V36.3257H117.515Z" fill="#FF7A00"/>
<path d="M0.586548 8.69768H4.73151L6.64758 33.4707H6.72579L8.75917 8.69768H13.4516L15.485 33.4707H15.5632L17.4792 8.69768H21.1941L18.4177 40.9302H13.0605L11.1054 19.1963H11.0272L9.072 40.9302H3.36289L0.586548 8.69768ZM26.159 8.69768H31.9854L36.4432 40.9302H32.1418L31.3598 34.5298V34.6219H26.4718L25.6898 40.9302H21.7012L26.159 8.69768ZM30.8514 30.2474L28.9354 14.3154H28.8571L26.9802 30.2474H30.8514ZM40.6846 27.2084L35.4839 8.69768H40.059L42.9917 20.5316H43.0699L46.0027 8.69768H50.1868L44.986 27.2084V40.9302H40.6846V27.2084ZM57.1054 41.3907C55.0199 41.3907 53.4427 40.7 52.3739 39.3186C51.305 37.9065 50.7706 35.8958 50.7706 33.2865V31.4447H54.8374V33.6549C54.8374 35.7423 55.5803 36.7861 57.0663 36.7861C57.7962 36.7861 58.3436 36.5405 58.7086 36.0493C59.0996 35.5274 59.2952 34.6986 59.2952 33.5628C59.2952 32.2121 59.0345 31.0302 58.5131 30.0172C57.9917 28.9735 57.0272 27.7302 55.6194 26.2874C53.8467 24.4456 52.6085 22.7879 51.9046 21.3144C51.2007 19.8102 50.8488 18.1219 50.8488 16.2493C50.8488 13.7014 51.3963 11.7367 52.4912 10.3554C53.5861 8.94326 55.1763 8.23721 57.2618 8.23721C59.3212 8.23721 60.8723 8.94326 61.9151 10.3554C62.9839 11.7367 63.5183 13.7321 63.5183 16.3414V17.6767H59.4516V16.0191C59.4516 14.914 59.2691 14.1158 58.9041 13.6247C58.5392 13.1028 58.0047 12.8419 57.3009 12.8419C55.8671 12.8419 55.1502 13.8702 55.1502 15.927C55.1502 17.0935 55.4109 18.1833 55.9323 19.1963C56.4797 20.2093 57.4573 21.4372 58.865 22.88C60.6638 24.7219 61.9021 26.3949 62.5799 27.8991C63.2576 29.4033 63.5965 31.1684 63.5965 33.1944C63.5965 35.8344 63.0361 37.8605 61.9151 39.2726C60.8202 40.6847 59.217 41.3907 57.1054 41.3907Z" fill="white"/>
<path d="M88.4302 42.405L91.3578 42.3836L91.263 24.3221L91.1682 6.26059L88.2406 6.2819L88.3354 24.3434L88.4302 42.405Z" fill="#DFE7F4"/>
<path d="M70.7697 24.4713L70.8646 42.5328L73.7921 42.5116L73.6973 24.4499L73.6025 6.38849L70.6749 6.4098L70.7697 24.4713Z" fill="#DFE7F4"/>
<path d="M70.7696 24.4713L70.6749 6.4098L73.6025 6.38849L73.6973 24.4499L70.7696 24.4713Z" fill="#C7CFE1"/>
<path d="M88.3354 24.3434L88.2405 6.2819L91.1682 6.26059L91.263 24.3221L88.3354 24.3434Z" fill="#C7CFE1"/>
<path d="M73.6973 24.4501L73.7863 41.3874L88.4243 41.2808L88.3354 24.3435L88.2465 7.4061L73.6085 7.51264L73.6973 24.4501Z" fill="#FF641A"/>
<path d="M73.6973 24.4499L73.6085 7.51264L88.2465 7.4061L88.3354 24.3434L73.6973 24.4499Z" fill="#F03800"/>
<path d="M87.7042 43.5344L92.0956 43.5025L91.9949 24.3168L91.8942 5.13113L87.5028 5.1631L87.6035 24.3488L87.7042 43.5344ZM90.6 37.4426L90.62 41.2649L89.1562 41.2755L89.1361 37.4534L90.6 37.4426ZM90.5685 31.4471L90.5881 35.1944L89.1244 35.205L89.1046 31.4578L90.5685 31.4471ZM90.537 25.4516L90.5566 29.1989L89.0929 29.2095L89.0732 25.4623L90.537 25.4516ZM88.9985 11.2229L88.9784 7.40077L90.4422 7.39011L90.4623 11.2123L88.9985 11.2229ZM89.0299 17.2185L89.0102 13.4712L90.4741 13.4606L90.4938 17.2077L89.0299 17.2185ZM89.0614 23.214L89.0417 19.4668L90.5055 19.4561L90.5251 23.2034L89.0614 23.214Z" fill="#404A80"/>
<path d="M70.0386 24.4764L70.1393 43.662L74.5307 43.6301L74.4301 24.4444L74.3294 5.2587L69.9379 5.29066L70.0386 24.4764ZM73.035 37.5702L73.0551 41.3923L71.5914 41.4031L71.5713 37.581L73.035 37.5702ZM73.0036 31.5747L73.0233 35.3219L71.5595 35.3326L71.5398 31.5853L73.0036 31.5747ZM72.9721 25.5792L72.9918 29.3264L71.528 29.3371L71.5084 25.5898L72.9721 25.5792ZM72.9406 19.5837L72.9603 23.3308L71.4965 23.3416L71.4769 19.5943L72.9406 19.5837ZM72.9091 13.588L72.9289 17.3353L71.465 17.3459L71.4454 13.5988L72.9091 13.588ZM72.8773 7.51768L72.8974 11.3472L71.4336 11.3579L71.4135 7.52833L72.8773 7.51768Z" fill="#404A80"/>
<path d="M72.9399 19.5837L72.9596 23.3308L71.4957 23.3414L71.476 19.5943L72.9399 19.5837ZM72.9084 13.588L72.9281 17.3353L71.4643 17.3459L71.4446 13.5986L72.9084 13.588ZM70.0378 24.4764L74.4292 24.4444L74.3285 5.25867L69.9371 5.29063L70.0378 24.4764ZM72.8766 7.51764L72.8967 11.3472L71.4328 11.3579L71.4127 7.5283L72.8766 7.51764Z" fill="#283366"/>
<path d="M87.5028 5.16307L87.6035 24.3488L91.9949 24.3168L91.8942 5.1311L87.5028 5.16307ZM90.5055 19.4561L90.5251 23.2032L89.0614 23.214L89.0417 19.4667L90.5055 19.4561ZM90.4741 13.4606L90.4938 17.2077L89.0299 17.2185L89.0102 13.4712L90.4741 13.4606ZM90.4422 7.39008L90.4623 11.2122L88.9985 11.2229L88.9784 7.40074L90.4422 7.39008Z" fill="#283366"/>
<path d="M78.1852 24.4173L76.7391 27.8005L85.329 27.7379L83.8476 24.3761L80.9822 17.8735L78.1852 24.4173Z" fill="#F0F7FF"/>
<path d="M78.1852 24.4173L83.8476 24.3761L80.9822 17.8735L78.1852 24.4173Z" fill="#DFE7F4"/>
</svg>
