<svg width="25" height="25" viewBox="0 0 25 25" fill="none" xmlns="http://www.w3.org/2000/svg">
<g clip-path="url(#clip0)">
<path d="M24.218 11.7192H14.3224C13.8912 11.7192 13.5412 11.3692 13.5412 10.9379C13.5412 10.5067 13.8912 10.1567 14.3224 10.1567H24.218C24.6493 10.1567 24.9992 10.5067 24.9992 10.9379C24.9992 11.3692 24.6493 11.7192 24.218 11.7192Z" fill="white"/>
<path d="M20.3118 15.6253C20.1117 15.6253 19.9118 15.5492 19.7596 15.3962C19.4545 15.0909 19.4545 14.5961 19.7596 14.291L23.1138 10.937L19.7596 7.58282C19.4545 7.27765 19.4545 6.7829 19.7596 6.47774C20.065 6.17238 20.5597 6.17238 20.8649 6.47774L24.771 10.3839C25.0762 10.689 25.0762 11.1838 24.771 11.489L20.8649 15.3951C20.7118 15.5492 20.5119 15.6253 20.3118 15.6253Z" fill="white"/>
<path d="M8.33314 25C8.11018 25 7.89866 24.9687 7.68733 24.9031L1.41864 22.8146C0.565702 22.5167 0 21.722 0 20.8335V2.08413C0 0.935174 0.934381 0.000793457 2.08333 0.000793457C2.3061 0.000793457 2.51762 0.032073 2.72914 0.0976838L8.99764 2.18617C9.85077 2.48408 10.4163 3.27885 10.4163 4.16727V22.9167C10.4163 24.0656 9.48209 25 8.33314 25ZM2.08333 1.56324C1.79686 1.56324 1.56245 1.79765 1.56245 2.08413V20.8335C1.56245 21.0554 1.71141 21.2615 1.92388 21.3355L8.1632 23.4147C8.20802 23.4292 8.26638 23.4376 8.33314 23.4376C8.61961 23.4376 8.85383 23.2032 8.85383 22.9167V4.16727C8.85383 3.94545 8.70487 3.73927 8.4924 3.66527L2.25308 1.58613C2.20826 1.57164 2.1499 1.56324 2.08333 1.56324Z" fill="white"/>
<path d="M15.8849 8.33393C15.4536 8.33393 15.1037 7.98394 15.1037 7.55271V2.86535C15.1037 2.14764 14.5194 1.56324 13.8017 1.56324H2.08335C1.65211 1.56324 1.30212 1.21326 1.30212 0.782019C1.30212 0.350781 1.65211 0.000793457 2.08335 0.000793457H13.8017C15.3819 0.000793457 16.6661 1.28516 16.6661 2.86535V7.55271C16.6661 7.98394 16.3161 8.33393 15.8849 8.33393Z" fill="white"/>
<path d="M13.8016 21.8751H9.63499C9.20375 21.8751 8.85376 21.5251 8.85376 21.0939C8.85376 20.6626 9.20375 20.3126 9.63499 20.3126H13.8016C14.5194 20.3126 15.1036 19.7282 15.1036 19.0105V14.3232C15.1036 13.8919 15.4536 13.542 15.8848 13.542C16.316 13.542 16.666 13.8919 16.666 14.3232V19.0105C16.666 20.5907 15.3818 21.8751 13.8016 21.8751Z" fill="white"/>
</g>
<defs>
<clipPath id="clip0">
<rect width="25" height="25" fill="white"/>
</clipPath>
</defs>
</svg>
