<svg width="12" height="12" viewBox="0 0 12 12" fill="none" xmlns="http://www.w3.org/2000/svg">
<path d="M11.9237 5.76661C11.8165 5.61997 9.26224 2.17584 5.99994 2.17584C2.73765 2.17584 0.183235 5.61997 0.0761486 5.76647C-0.0253829 5.9056 -0.0253829 6.0943 0.0761486 6.23342C0.183235 6.38007 2.73765 9.82419 5.99994 9.82419C9.26224 9.82419 11.8165 6.38005 11.9237 6.23354C12.0254 6.09444 12.0254 5.9056 11.9237 5.76661ZM5.99994 9.03299C3.59691 9.03299 1.51564 6.74705 0.899533 5.99975C1.51484 5.25179 3.59176 2.96705 5.99994 2.96705C8.40285 2.96705 10.484 5.25258 11.1004 6.00029C10.485 6.74823 8.40813 9.03299 5.99994 9.03299Z" fill="#555555"/>
<path d="M5.99995 3.6264C4.69115 3.6264 3.62631 4.69124 3.62631 6.00004C3.62631 7.30884 4.69115 8.37368 5.99995 8.37368C7.30875 8.37368 8.37359 7.30884 8.37359 6.00004C8.37359 4.69124 7.30875 3.6264 5.99995 3.6264ZM5.99995 7.58245C5.12737 7.58245 4.41754 6.8726 4.41754 6.00004C4.41754 5.12749 5.12739 4.41763 5.99995 4.41763C6.87251 4.41763 7.58236 5.12749 7.58236 6.00004C7.58236 6.8726 6.87253 7.58245 5.99995 7.58245Z" fill="#555555"/>
</svg>
