<svg width="12" height="12" viewBox="0 0 12 12" fill="none" xmlns="http://www.w3.org/2000/svg">
<g clip-path="url(#clip0)">
<path d="M9.89286 1.75541C7.55232 -0.585136 3.744 -0.585136 1.40343 1.75541C1.19964 1.9592 1.19964 2.28955 1.40343 2.49329C1.60717 2.69703 1.93755 2.69708 2.14132 2.49329C4.07498 0.559624 7.22129 0.559624 9.15495 2.49329C11.0886 4.42698 11.0886 7.57329 9.15498 9.50695C7.31436 11.3475 4.37515 11.436 2.42882 9.77267L2.64304 9.55845C2.85557 9.34594 2.75845 8.98165 2.46761 8.90374L0.844681 8.46888C0.554336 8.39116 0.287453 8.6573 0.365406 8.94816L0.800266 10.5711C0.87836 10.8626 1.24267 10.9589 1.45497 10.7465L1.68932 10.5122C4.04449 12.5813 7.64536 12.4923 9.89291 10.2448C12.2334 7.90432 12.2334 4.09597 9.89286 1.75541Z" fill="#555555"/>
<path d="M7.14517 5.88292H5.86597V3.70335C5.86597 3.48723 5.69075 3.31201 5.47463 3.31201C5.25852 3.31201 5.0833 3.48723 5.0833 3.70335V6.27426C5.0833 6.49038 5.25852 6.6656 5.47463 6.6656H7.14517C7.36129 6.6656 7.53651 6.49038 7.53651 6.27426C7.53651 6.05814 7.36129 5.88292 7.14517 5.88292Z" fill="#555555"/>
</g>
<defs>
<clipPath id="clip0">
<rect width="12" height="12" fill="white"/>
</clipPath>
</defs>
</svg>
