<svg width="26" height="30" viewBox="0 0 26 30" fill="none" xmlns="http://www.w3.org/2000/svg">
<path d="M12.7862 14.4511C14.7715 14.4511 16.4904 13.7391 17.8953 12.3342C19.2997 10.9296 20.012 9.21089 20.012 7.22534C20.012 5.24048 19.3 3.52158 17.8951 2.11647C16.4902 0.712051 14.7713 0 12.7862 0C10.8007 0 9.082 0.712051 7.67735 2.1167C6.27271 3.52135 5.56042 5.24025 5.56042 7.22534C5.56042 9.21089 6.27271 10.9298 7.67735 12.3344C9.08246 13.7389 10.8014 14.4511 12.7862 14.4511ZM8.92064 3.35976C9.99844 2.28195 11.2628 1.75804 12.7862 1.75804C14.3094 1.75804 15.574 2.28195 16.652 3.35976C17.7298 4.43779 18.254 5.70236 18.254 7.22534C18.254 8.74878 17.7298 10.0131 16.652 11.0912C15.574 12.1692 14.3094 12.6931 12.7862 12.6931C11.2632 12.6931 9.9989 12.169 8.92064 11.0912C7.84261 10.0134 7.31847 8.74878 7.31847 7.22534C7.31847 5.70236 7.84261 4.43779 8.92064 3.35976Z" fill="white"/>
<path d="M25.4294 23.0686C25.3889 22.4841 25.307 21.8464 25.1864 21.173C25.0646 20.4946 24.9078 19.8533 24.7201 19.2671C24.526 18.6613 24.2626 18.063 23.9364 17.4896C23.5984 16.8945 23.201 16.3763 22.7552 15.9499C22.2889 15.5038 21.7181 15.1452 21.058 14.8836C20.4002 14.6233 19.6712 14.4915 18.8914 14.4915C18.5852 14.4915 18.289 14.6172 17.717 14.9895C17.365 15.2191 16.9532 15.4846 16.4937 15.7783C16.1007 16.0287 15.5683 16.2633 14.9107 16.4757C14.2691 16.6833 13.6178 16.7886 12.9746 16.7886C12.3319 16.7886 11.6805 16.6833 11.0385 16.4757C10.3816 16.2635 9.84898 16.0289 9.45668 15.7785C9.00143 15.4876 8.58945 15.2221 8.23216 14.9893C7.66064 14.6169 7.36447 14.4913 7.05823 14.4913C6.2782 14.4913 5.54944 14.6233 4.89186 14.8838C4.23222 15.145 3.66116 15.5036 3.19447 15.9502C2.74861 16.3768 2.35127 16.8948 2.01344 17.4896C1.68774 18.063 1.42407 18.661 1.22998 19.2673C1.04253 19.8535 0.885742 20.4946 0.763977 21.173C0.643127 21.8455 0.561417 22.4834 0.520905 23.0693C0.481079 23.6422 0.460938 24.2384 0.460938 24.8409C0.460938 26.4069 0.958755 27.6746 1.94043 28.6096C2.90997 29.5322 4.19263 30.0001 5.75291 30.0001H20.1981C21.7579 30.0001 23.0406 29.5322 24.0104 28.6096C24.9923 27.6753 25.4901 26.4071 25.4901 24.8406C25.4899 24.2361 25.4695 23.6399 25.4294 23.0686ZM22.7982 27.3359C22.1576 27.9456 21.307 28.242 20.1979 28.242H5.75291C4.64352 28.242 3.793 27.9456 3.15259 27.3361C2.52431 26.7381 2.21898 25.9216 2.21898 24.8409C2.21898 24.2787 2.23752 23.7237 2.2746 23.1908C2.31076 22.6681 2.38469 22.0938 2.49432 21.4836C2.60258 20.881 2.74037 20.3154 2.90425 19.8034C3.06149 19.3124 3.27596 18.8263 3.54192 18.358C3.79575 17.9117 4.0878 17.5288 4.41006 17.2202C4.7115 16.9316 5.09145 16.6954 5.53914 16.5182C5.95319 16.3544 6.4185 16.2646 6.92365 16.2511C6.98521 16.2839 7.09485 16.3464 7.27246 16.4622C7.63387 16.6977 8.05043 16.9664 8.51094 17.2605C9.03004 17.5915 9.69884 17.8904 10.4979 18.1483C11.3147 18.4125 12.1479 18.5466 12.9748 18.5466C13.8018 18.5466 14.6351 18.4125 15.4516 18.1486C16.2513 17.8902 16.9198 17.5915 17.4396 17.2601C17.9109 16.9588 18.3158 16.6979 18.6772 16.4622C18.8548 16.3466 18.9644 16.2839 19.026 16.2511C19.5314 16.2646 19.9967 16.3544 20.411 16.5182C20.8584 16.6954 21.2384 16.9318 21.5398 17.2202C21.8621 17.5285 22.1541 17.9115 22.408 18.3582C22.6741 18.8263 22.8888 19.3127 23.0459 19.8032C23.21 20.3159 23.348 20.8812 23.456 21.4834C23.5654 22.0947 23.6396 22.6692 23.6757 23.1911C23.713 23.7218 23.7318 24.2771 23.732 24.8409C23.7318 25.9219 23.4265 26.7381 22.7982 27.3359Z" fill="white"/>
</svg>
