<svg width="387" height="294" viewBox="0 0 387 294" fill="none" xmlns="http://www.w3.org/2000/svg">
<path d="M311.84 106.864C305.5 106.864 300.667 105.08 297.338 101.514C294.01 97.8681 292.346 92.6768 292.346 85.9401V22.4561H305.421V86.8911C305.421 89.7443 305.976 91.805 307.085 93.0731C308.274 94.3412 309.938 94.9752 312.077 94.9752C314.217 94.9752 315.841 94.3412 316.951 93.0731C318.139 91.805 318.734 89.7443 318.734 86.8911V22.4561H331.333V85.9401C331.333 92.6768 329.669 97.8681 326.341 101.514C323.013 105.08 318.179 106.864 311.84 106.864ZM340.644 22.4561H360.375C367.11 22.4561 372.023 24.0412 375.114 27.2115C378.204 30.3024 379.749 35.0975 379.749 41.5964V44.9252C379.749 49.205 379.036 52.6922 377.61 55.3869C376.263 58.0816 374.163 60.0234 371.31 61.2122V61.45C377.808 63.6692 381.057 69.4549 381.057 78.807V85.9401C381.057 92.3598 379.353 97.2737 375.946 100.682C372.618 104.01 367.705 105.675 361.207 105.675H340.644V22.4561ZM358.83 56.338C361.445 56.338 363.386 55.6643 364.654 54.317C366.001 52.9696 366.675 50.7108 366.675 47.5406V42.9042C366.675 39.8924 366.12 37.7129 365.011 36.3655C363.98 35.0182 362.316 34.3445 360.018 34.3445H353.719V56.338H358.83ZM361.207 93.7864C363.505 93.7864 365.209 93.192 366.318 92.0031C367.427 90.735 367.982 88.5951 367.982 85.5834V78.3315C367.982 74.5272 367.309 71.9118 365.961 70.4852C364.694 68.9793 362.554 68.2264 359.543 68.2264H353.719V93.7864H361.207Z" fill="#FF7A00"/>
<path d="M5.78296 22.4558H18.3823L24.2066 86.4153H24.4443L30.6251 22.4558H44.8886L51.0694 86.4153H51.3071L57.1314 22.4558H68.4233L59.9841 105.674H43.7L37.7569 49.5613H37.5191L31.576 105.674H14.2222L5.78296 22.4558ZM83.5151 22.4558H101.226L114.776 105.674H101.701L99.3238 89.1496V89.3874H84.466L82.0888 105.674H69.9649L83.5151 22.4558ZM97.7786 78.0934L91.9543 36.9596H91.7166L86.0112 78.0934H97.7786ZM127.668 70.2471L111.86 22.4558H125.767L134.681 53.0089H134.919L143.834 22.4558H156.552L140.743 70.2471V105.674H127.668V70.2471ZM177.582 106.863C171.243 106.863 166.449 105.08 163.2 101.514C159.951 97.8677 158.327 92.6765 158.327 85.9397V81.1844H170.688V86.8908C170.688 92.2802 172.947 94.9749 177.463 94.9749C179.682 94.9749 181.346 94.3409 182.456 93.0728C183.644 91.7254 184.239 89.5855 184.239 86.653C184.239 83.1658 183.446 80.1144 181.861 77.499C180.276 74.8043 177.345 71.5944 173.065 67.8694C167.677 63.1141 163.913 58.8342 161.774 55.03C159.634 51.1464 158.564 46.7874 158.564 41.9528C158.564 35.3745 160.228 30.3021 163.557 26.7356C166.885 23.0899 171.718 21.267 178.058 21.267C184.318 21.267 189.033 23.0899 192.202 26.7356C195.451 30.3021 197.076 35.4538 197.076 42.1905V45.6381H184.714V41.3583C184.714 38.5051 184.159 36.4445 183.05 35.1764C181.941 33.829 180.316 33.1554 178.177 33.1554C173.818 33.1554 171.639 35.8104 171.639 41.1206C171.639 44.1323 172.432 46.9459 174.016 49.5613C175.68 52.1768 178.652 55.347 182.931 59.072C188.399 63.8274 192.163 68.1468 194.223 72.0303C196.283 75.9139 197.313 80.4711 197.313 85.702C197.313 92.518 195.61 97.7489 192.202 101.395C188.874 105.04 184.001 106.863 177.582 106.863Z" fill="white"/>
<path d="M272.8 109.482L281.699 109.427L281.411 62.7954L281.122 16.1637L272.223 16.2188L272.511 62.8502L272.8 109.482Z" fill="#DFE7F4"/>
<path d="M219.118 63.1804L219.406 109.812L228.305 109.757L228.016 63.1253L227.728 16.4939L218.829 16.5489L219.118 63.1804Z" fill="#DFE7F4"/>
<path d="M219.117 63.1804L218.829 16.5489L227.728 16.4939L228.016 63.1253L219.117 63.1804Z" fill="#C7CFE1"/>
<path d="M272.511 62.8502L272.223 16.2188L281.122 16.1637L281.41 62.7954L272.511 62.8502Z" fill="#C7CFE1"/>
<path d="M228.016 63.1256L228.287 106.855L272.782 106.58L272.511 62.8505L272.241 19.1212L227.746 19.3963L228.016 63.1256Z" fill="#FF641A"/>
<path d="M228.016 63.1253L227.746 19.3963L272.241 19.1212L272.511 62.8502L228.016 63.1253Z" fill="#F03800"/>
<path d="M270.593 112.398L283.941 112.315L283.635 62.7815L283.329 13.2476L269.981 13.3301L270.287 62.8641L270.593 112.398ZM279.395 96.67L279.456 106.538L275.007 106.566L274.945 96.6977L279.395 96.67ZM279.299 81.1906L279.359 90.8655L274.91 90.8929L274.85 81.2184L279.299 81.1906ZM279.204 65.7113L279.263 75.3862L274.814 75.4136L274.754 65.7391L279.204 65.7113ZM274.527 28.9755L274.466 19.1074L278.915 19.0799L278.977 28.948L274.527 28.9755ZM274.623 44.4549L274.563 34.7801L279.013 34.7527L279.072 44.4272L274.623 44.4549ZM274.718 59.9342L274.659 50.2597L279.108 50.232L279.168 59.9068L274.718 59.9342Z" fill="#404A80"/>
<path d="M216.895 63.1943L217.201 112.728L230.55 112.646L230.244 63.1118L229.938 13.5778L216.589 13.6603L216.895 63.1943ZM226.003 97.0002L226.064 106.868L221.615 106.896L221.554 97.028L226.003 97.0002ZM225.908 81.5209L225.968 91.1954L221.518 91.2231L221.458 81.5483L225.908 81.5209ZM225.812 66.0416L225.872 75.7161L221.423 75.7438L221.363 66.069L225.812 66.0416ZM225.716 50.5623L225.776 60.2367L221.327 60.2645L221.267 50.5897L225.716 50.5623ZM225.621 35.0826L225.681 44.7574L221.231 44.7848L221.171 35.1103L225.621 35.0826ZM225.524 19.41L225.585 29.2973L221.136 29.3248L221.075 19.4375L225.524 19.41Z" fill="#404A80"/>
<path d="M225.714 50.5623L225.774 60.2367L221.324 60.2642L221.264 50.5897L225.714 50.5623ZM225.618 35.0826L225.678 44.7574L221.229 44.7848L221.169 35.11L225.618 35.0826ZM216.893 63.1943L230.241 63.1118L229.935 13.5777L216.586 13.6603L216.893 63.1943ZM225.522 19.41L225.583 29.2972L221.133 29.3248L221.072 19.4375L225.522 19.41Z" fill="#283366"/>
<path d="M269.981 13.3301L270.287 62.8641L283.635 62.7815L283.329 13.2476L269.981 13.3301ZM279.108 50.232L279.168 59.9065L274.718 59.9343L274.659 50.2594L279.108 50.232ZM279.013 34.7527L279.072 44.4272L274.623 44.4549L274.563 34.7801L279.013 34.7527ZM278.915 19.0798L278.977 28.9479L274.527 28.9754L274.466 19.1073L278.915 19.0798Z" fill="#283366"/>
<path d="M241.658 63.0411L237.263 71.7757L263.373 71.6143L258.87 62.9347L250.16 46.1461L241.658 63.0411Z" fill="#F0F7FF"/>
<path d="M241.658 63.0411L258.87 62.9347L250.16 46.1461L241.658 63.0411Z" fill="#DFE7F4"/>
<path d="M52.32 190.888L59.52 199.528L50.4 206.536L45.408 200.488C40.864 204.52 35.392 206.536 28.992 206.536C25.408 206.536 22.048 205.96 18.912 204.808C15.84 203.592 13.152 201.928 10.848 199.816C8.544 197.64 6.72 195.08 5.376 192.136C4.096 189.192 3.456 185.96 3.456 182.44C3.456 178.6 4.384 174.952 6.24 171.496C8.16 168.04 10.816 165.096 14.208 162.664C12.992 161 12 159.272 11.232 157.48C10.464 155.688 10.08 153.8 10.08 151.816C10.08 149.448 10.496 147.24 11.328 145.192C12.224 143.08 13.472 141.256 15.072 139.72C16.672 138.184 18.56 136.968 20.736 136.072C22.912 135.176 25.312 134.728 27.936 134.728C32.544 134.728 36.224 135.816 38.976 137.992C41.792 140.104 43.808 142.792 45.024 146.056L34.848 151.432C34.336 149.896 33.536 148.584 32.448 147.496C31.36 146.344 29.92 145.768 28.128 145.768C26.272 145.768 24.8 146.312 23.712 147.4C22.624 148.488 22.08 149.864 22.08 151.528C22.08 152.552 22.304 153.512 22.752 154.408C23.2 155.24 23.808 156.136 24.576 157.096L45.216 182.248L50.88 173.032L60 178.792L52.32 190.888ZM29.568 195.208C33.152 195.208 36.096 194.152 38.4 192.04L21.024 171.016C19.232 172.36 17.856 174.024 16.896 176.008C15.936 177.928 15.456 179.912 15.456 181.96C15.456 184.008 15.84 185.864 16.608 187.528C17.376 189.128 18.4 190.504 19.68 191.656C21.024 192.808 22.528 193.704 24.192 194.344C25.92 194.92 27.712 195.208 29.568 195.208Z" fill="white"/>
<path d="M156.224 187.272C156.864 187.016 157.504 187.048 158.144 187.368C158.784 187.624 159.232 188.072 159.488 188.712C159.744 189.352 159.744 189.992 159.488 190.632C154.112 202.792 147.008 212.264 138.176 219.048C130.112 225.256 121.664 228.36 112.832 228.36C111.744 228.36 110.688 228.328 109.664 228.264C99.168 227.368 91.68 222.12 87.2 212.52C82.72 202.92 81.888 190.632 84.704 175.656C85.536 171.176 86.656 166.728 88.064 162.312C89.536 157.896 91.232 153.704 93.152 149.736C95.136 145.704 97.28 142.056 99.584 138.792C103.488 133.16 107.68 128.904 112.16 126.024C117.152 122.696 122.176 121.256 127.232 121.704C128.448 121.832 129.6 122.152 130.688 122.664C131.776 123.112 132.96 123.88 134.24 124.968C135.52 126.056 136.608 127.72 137.504 129.96C138.4 132.2 139.008 134.92 139.328 138.12C139.904 143.816 139.456 149.768 137.984 155.976C136.384 162.568 134.272 166.248 131.648 167.016C129.536 167.656 127.84 166.728 126.56 164.232C126.24 163.656 126.176 163.048 126.368 162.408C126.624 161.704 127.072 161.192 127.712 160.872C128.8 160.296 129.792 160.456 130.688 161.352C131.968 159.24 132.96 155.976 133.664 151.56C134.816 144.712 134.752 138.856 133.472 133.992C132.256 129.448 130.048 127.048 126.848 126.792C123.008 126.472 119.104 127.592 115.136 130.152C111.168 132.712 107.392 136.552 103.808 141.672C100.48 146.344 97.568 151.752 95.072 157.896C92.64 163.976 90.848 170.216 89.696 176.616C87.072 190.504 87.776 201.768 91.808 210.408C95.456 218.216 101.568 222.472 110.144 223.176C118.72 223.944 127.04 221.224 135.104 215.016C143.232 208.808 149.792 200.008 154.784 188.616C155.104 187.976 155.584 187.528 156.224 187.272ZM198.238 187.176C198.814 186.92 199.358 186.952 199.87 187.272C200.446 187.528 200.83 187.944 201.022 188.52C201.214 189.096 201.182 189.64 200.926 190.152C199.454 193.16 197.438 195.816 194.878 198.12C192.382 200.36 189.598 201.48 186.526 201.48C185.374 201.48 184.318 201.288 183.358 200.904C182.398 200.52 181.566 199.944 180.862 199.176C180.158 198.344 179.614 197.672 179.23 197.16C178.91 196.584 178.494 195.816 177.982 194.856C177.47 194.024 177.054 193.384 176.734 192.936C176.478 192.488 176.19 192.136 175.87 191.88C175.55 191.624 175.198 191.464 174.814 191.4C174.174 191.336 173.374 191.656 172.414 192.36C171.454 193.064 170.654 193.736 170.014 194.376C169.438 195.016 168.67 195.944 167.71 197.16C166.75 198.312 166.014 199.176 165.502 199.752C164.99 200.264 164.35 200.776 163.582 201.288C162.814 201.8 162.078 202.056 161.374 202.056C159.006 202.056 157.373 200.136 156.477 196.296C155.837 193.544 155.517 189.896 155.517 185.352C155.517 173.384 157.149 161.8 160.414 150.6C162.142 144.584 164.19 139.848 166.558 136.392C169.438 132.04 172.702 129.864 176.35 129.864C176.862 129.864 177.374 129.928 177.886 130.056C178.398 130.12 178.974 130.344 179.614 130.728C180.318 131.112 180.926 131.624 181.438 132.264C181.95 132.904 182.398 133.832 182.781 135.048C183.23 136.2 183.486 137.544 183.55 139.08C183.934 146.632 181.406 156.168 175.966 167.688C173.534 172.808 170.91 177.384 168.094 181.416C165.342 185.448 162.654 188.488 160.03 190.536C160.094 190.984 160.158 191.432 160.222 191.88C160.478 194.568 160.894 196.424 161.47 197.448C161.982 197 162.942 195.944 164.35 194.28C165.694 192.744 166.75 191.56 167.518 190.728C168.35 189.832 169.47 188.968 170.878 188.136C172.35 187.304 173.79 186.92 175.198 186.984C176.03 187.048 176.798 187.272 177.502 187.656C178.206 187.976 178.846 188.488 179.422 189.192C179.998 189.832 180.414 190.376 180.67 190.824C180.99 191.272 181.374 191.912 181.822 192.744C182.398 193.832 182.846 194.632 183.166 195.144C183.55 195.656 184.03 196.104 184.606 196.488C185.182 196.872 185.822 197.064 186.526 197.064C188.51 197.064 190.526 196.136 192.574 194.28C194.366 192.616 195.838 190.6 196.99 188.232C197.246 187.72 197.662 187.368 198.238 187.176ZM160.126 178.536C159.998 180.712 159.934 182.76 159.934 184.68C164.158 180.2 168.158 173.896 171.934 165.768C174.366 160.712 176.222 155.848 177.502 151.176C178.782 146.44 179.326 142.504 179.134 139.368C179.07 137.704 178.814 136.424 178.366 135.528C177.918 134.696 177.246 134.28 176.35 134.28C175.198 134.28 174.014 134.792 172.798 135.816C171.646 136.776 170.494 138.216 169.342 140.136C168.19 142.056 167.134 144.392 166.174 147.144C162.91 156.04 160.894 166.504 160.126 178.536ZM223.612 186.984C224.252 186.856 224.828 186.952 225.34 187.272C225.852 187.592 226.172 188.072 226.3 188.712C226.428 189.288 226.332 189.832 226.012 190.344C223.708 194.12 220.892 197.032 217.564 199.08C214.684 200.936 211.868 201.896 209.116 201.96C208.988 201.96 208.86 201.96 208.732 201.96C205.404 201.96 202.844 200.872 201.052 198.696C198.875 196.136 198.267 192.424 199.227 187.56C199.355 186.984 199.675 186.536 200.188 186.216C200.636 185.832 201.148 185.704 201.724 185.832C202.364 185.96 202.844 186.28 203.164 186.792C203.548 187.304 203.676 187.848 203.548 188.424C202.844 191.944 203.132 194.44 204.412 195.912C205.372 197.064 206.908 197.608 209.02 197.544C211.004 197.48 213.212 196.68 215.644 195.144C218.14 193.544 220.348 191.144 222.268 187.944C222.588 187.432 223.036 187.112 223.612 186.984ZM201.532 182.472C201.148 182.344 200.828 182.152 200.572 181.896C200.316 181.576 200.155 181.256 200.091 180.936C199.963 180.552 199.963 180.136 200.091 179.688C200.091 179.56 200.123 179.4 200.188 179.208C200.7 177.416 201.308 176.168 202.012 175.464C202.396 174.952 202.876 174.696 203.452 174.696C204.092 174.632 204.636 174.824 205.084 175.272C205.532 175.656 205.756 176.168 205.756 176.808C205.82 177.384 205.66 177.896 205.276 178.344C205.02 178.6 204.732 179.272 204.412 180.36C204.348 180.68 204.316 180.872 204.316 180.936C203.996 182.024 203.292 182.568 202.204 182.568C201.948 182.568 201.724 182.536 201.532 182.472ZM278.892 187.08C279.532 186.952 280.076 187.08 280.524 187.464C281.036 187.784 281.324 188.264 281.388 188.904C281.516 189.48 281.42 190.024 281.1 190.536C278.156 194.504 275.5 197.48 273.132 199.464C269.996 201.96 266.86 203.208 263.724 203.208C262.828 203.208 261.964 203.112 261.132 202.92C256.652 201.96 253.484 198.632 251.628 192.936C249.644 195.56 247.756 197.64 245.964 199.176C242.7 201.864 239.468 203.208 236.268 203.208C235.372 203.208 234.476 203.112 233.58 202.92C229.868 202.088 227.02 199.528 225.036 195.24C223.052 190.888 222.028 184.968 221.964 177.48C221.9 167.624 223.468 157.832 226.668 148.104C229.804 138.696 233.452 132.296 237.612 128.904C239.916 127.048 242.156 126.376 244.332 126.888C245.804 127.208 246.956 128.04 247.788 129.384C249.132 131.56 249.644 135.048 249.324 139.848C249.132 143.24 248.588 146.76 247.692 150.408C246.028 157.512 243.244 164.712 239.34 172.008C235.436 179.24 231.532 184.968 227.628 189.192C228.972 194.76 231.276 197.896 234.54 198.6C237.292 199.24 239.916 198.504 242.412 196.392C244.972 194.216 247.596 191.176 250.284 187.272C249.964 184.776 249.772 182.024 249.708 179.016C249.644 169.864 251.148 160.776 254.22 151.752C257.228 142.984 260.748 136.968 264.78 133.704C267.084 131.784 269.356 131.08 271.596 131.592C273.068 131.848 274.22 132.648 275.052 133.992C276.332 136.104 276.812 139.432 276.492 143.976C276.3 147.112 275.788 150.344 274.956 153.672C273.292 160.328 270.572 167.048 266.796 173.832C263.02 180.616 259.212 186.024 255.372 190.056C256.652 195.112 258.892 197.992 262.092 198.696C264.716 199.272 267.276 198.568 269.772 196.584C272.268 194.536 274.828 191.656 277.452 187.944C277.836 187.432 278.316 187.144 278.892 187.08ZM226.38 177.48C226.38 179.656 226.476 181.672 226.668 183.528C229.548 179.944 232.3 175.72 234.924 170.856C238.956 163.368 241.804 156.2 243.468 149.352C244.428 145.128 244.94 141.352 245.004 138.024C245.068 134.632 244.748 132.552 244.044 131.784C243.852 131.464 243.66 131.272 243.468 131.208C243.276 131.144 243.116 131.112 242.988 131.112C242.22 131.112 241.356 131.528 240.396 132.36C236.876 135.176 233.708 140.904 230.892 149.544C227.82 158.76 226.316 168.072 226.38 177.48ZM267.564 137.064C264.172 139.88 261.068 145.416 258.252 153.672C255.436 161.864 254.06 170.312 254.124 179.016C254.124 181 254.22 182.824 254.412 184.488C257.164 181.16 259.82 177.224 262.38 172.68C266.348 165.704 269.1 159.016 270.636 152.616C271.596 148.776 272.108 145.288 272.172 142.152C272.236 139.016 271.948 137.096 271.308 136.392C271.116 136.072 270.924 135.912 270.732 135.912C270.604 135.848 270.476 135.816 270.348 135.816C269.516 135.816 268.588 136.232 267.564 137.064Z" fill="#FF7A00"/>
<g filter="url(#filter0_f)">
<path d="M156.224 187.272C156.864 187.016 157.504 187.048 158.144 187.368C158.784 187.624 159.232 188.072 159.488 188.712C159.744 189.352 159.744 189.992 159.488 190.632C154.112 202.792 147.008 212.264 138.176 219.048C130.112 225.256 121.664 228.36 112.832 228.36C111.744 228.36 110.688 228.328 109.664 228.264C99.168 227.368 91.68 222.12 87.2 212.52C82.72 202.92 81.888 190.632 84.704 175.656C85.536 171.176 86.656 166.728 88.064 162.312C89.536 157.896 91.232 153.704 93.152 149.736C95.136 145.704 97.28 142.056 99.584 138.792C103.488 133.16 107.68 128.904 112.16 126.024C117.152 122.696 122.176 121.256 127.232 121.704C128.448 121.832 129.6 122.152 130.688 122.664C131.776 123.112 132.96 123.88 134.24 124.968C135.52 126.056 136.608 127.72 137.504 129.96C138.4 132.2 139.008 134.92 139.328 138.12C139.904 143.816 139.456 149.768 137.984 155.976C136.384 162.568 134.272 166.248 131.648 167.016C129.536 167.656 127.84 166.728 126.56 164.232C126.24 163.656 126.176 163.048 126.368 162.408C126.624 161.704 127.072 161.192 127.712 160.872C128.8 160.296 129.792 160.456 130.688 161.352C131.968 159.24 132.96 155.976 133.664 151.56C134.816 144.712 134.752 138.856 133.472 133.992C132.256 129.448 130.048 127.048 126.848 126.792C123.008 126.472 119.104 127.592 115.136 130.152C111.168 132.712 107.392 136.552 103.808 141.672C100.48 146.344 97.568 151.752 95.072 157.896C92.64 163.976 90.848 170.216 89.696 176.616C87.072 190.504 87.776 201.768 91.808 210.408C95.456 218.216 101.568 222.472 110.144 223.176C118.72 223.944 127.04 221.224 135.104 215.016C143.232 208.808 149.792 200.008 154.784 188.616C155.104 187.976 155.584 187.528 156.224 187.272ZM198.238 187.176C198.814 186.92 199.358 186.952 199.87 187.272C200.446 187.528 200.83 187.944 201.022 188.52C201.214 189.096 201.182 189.64 200.926 190.152C199.454 193.16 197.438 195.816 194.878 198.12C192.382 200.36 189.598 201.48 186.526 201.48C185.374 201.48 184.318 201.288 183.358 200.904C182.398 200.52 181.566 199.944 180.862 199.176C180.158 198.344 179.614 197.672 179.23 197.16C178.91 196.584 178.494 195.816 177.982 194.856C177.47 194.024 177.054 193.384 176.734 192.936C176.478 192.488 176.19 192.136 175.87 191.88C175.55 191.624 175.198 191.464 174.814 191.4C174.174 191.336 173.374 191.656 172.414 192.36C171.454 193.064 170.654 193.736 170.014 194.376C169.438 195.016 168.67 195.944 167.71 197.16C166.75 198.312 166.014 199.176 165.502 199.752C164.99 200.264 164.35 200.776 163.582 201.288C162.814 201.8 162.078 202.056 161.374 202.056C159.006 202.056 157.373 200.136 156.477 196.296C155.837 193.544 155.517 189.896 155.517 185.352C155.517 173.384 157.149 161.8 160.414 150.6C162.142 144.584 164.19 139.848 166.558 136.392C169.438 132.04 172.702 129.864 176.35 129.864C176.862 129.864 177.374 129.928 177.886 130.056C178.398 130.12 178.974 130.344 179.614 130.728C180.318 131.112 180.926 131.624 181.438 132.264C181.95 132.904 182.398 133.832 182.781 135.048C183.23 136.2 183.486 137.544 183.55 139.08C183.934 146.632 181.406 156.168 175.966 167.688C173.534 172.808 170.91 177.384 168.094 181.416C165.342 185.448 162.654 188.488 160.03 190.536C160.094 190.984 160.158 191.432 160.222 191.88C160.478 194.568 160.894 196.424 161.47 197.448C161.982 197 162.942 195.944 164.35 194.28C165.694 192.744 166.75 191.56 167.518 190.728C168.35 189.832 169.47 188.968 170.878 188.136C172.35 187.304 173.79 186.92 175.198 186.984C176.03 187.048 176.798 187.272 177.502 187.656C178.206 187.976 178.846 188.488 179.422 189.192C179.998 189.832 180.414 190.376 180.67 190.824C180.99 191.272 181.374 191.912 181.822 192.744C182.398 193.832 182.846 194.632 183.166 195.144C183.55 195.656 184.03 196.104 184.606 196.488C185.182 196.872 185.822 197.064 186.526 197.064C188.51 197.064 190.526 196.136 192.574 194.28C194.366 192.616 195.838 190.6 196.99 188.232C197.246 187.72 197.662 187.368 198.238 187.176ZM160.126 178.536C159.998 180.712 159.934 182.76 159.934 184.68C164.158 180.2 168.158 173.896 171.934 165.768C174.366 160.712 176.222 155.848 177.502 151.176C178.782 146.44 179.326 142.504 179.134 139.368C179.07 137.704 178.814 136.424 178.366 135.528C177.918 134.696 177.246 134.28 176.35 134.28C175.198 134.28 174.014 134.792 172.798 135.816C171.646 136.776 170.494 138.216 169.342 140.136C168.19 142.056 167.134 144.392 166.174 147.144C162.91 156.04 160.894 166.504 160.126 178.536ZM223.612 186.984C224.252 186.856 224.828 186.952 225.34 187.272C225.852 187.592 226.172 188.072 226.3 188.712C226.428 189.288 226.332 189.832 226.012 190.344C223.708 194.12 220.892 197.032 217.564 199.08C214.684 200.936 211.868 201.896 209.116 201.96C208.988 201.96 208.86 201.96 208.732 201.96C205.404 201.96 202.844 200.872 201.052 198.696C198.875 196.136 198.267 192.424 199.227 187.56C199.355 186.984 199.675 186.536 200.188 186.216C200.636 185.832 201.148 185.704 201.724 185.832C202.364 185.96 202.844 186.28 203.164 186.792C203.548 187.304 203.676 187.848 203.548 188.424C202.844 191.944 203.132 194.44 204.412 195.912C205.372 197.064 206.908 197.608 209.02 197.544C211.004 197.48 213.212 196.68 215.644 195.144C218.14 193.544 220.348 191.144 222.268 187.944C222.588 187.432 223.036 187.112 223.612 186.984ZM201.532 182.472C201.148 182.344 200.828 182.152 200.572 181.896C200.316 181.576 200.155 181.256 200.091 180.936C199.963 180.552 199.963 180.136 200.091 179.688C200.091 179.56 200.123 179.4 200.188 179.208C200.7 177.416 201.308 176.168 202.012 175.464C202.396 174.952 202.876 174.696 203.452 174.696C204.092 174.632 204.636 174.824 205.084 175.272C205.532 175.656 205.756 176.168 205.756 176.808C205.82 177.384 205.66 177.896 205.276 178.344C205.02 178.6 204.732 179.272 204.412 180.36C204.348 180.68 204.316 180.872 204.316 180.936C203.996 182.024 203.292 182.568 202.204 182.568C201.948 182.568 201.724 182.536 201.532 182.472ZM278.892 187.08C279.532 186.952 280.076 187.08 280.524 187.464C281.036 187.784 281.324 188.264 281.388 188.904C281.516 189.48 281.42 190.024 281.1 190.536C278.156 194.504 275.5 197.48 273.132 199.464C269.996 201.96 266.86 203.208 263.724 203.208C262.828 203.208 261.964 203.112 261.132 202.92C256.652 201.96 253.484 198.632 251.628 192.936C249.644 195.56 247.756 197.64 245.964 199.176C242.7 201.864 239.468 203.208 236.268 203.208C235.372 203.208 234.476 203.112 233.58 202.92C229.868 202.088 227.02 199.528 225.036 195.24C223.052 190.888 222.028 184.968 221.964 177.48C221.9 167.624 223.468 157.832 226.668 148.104C229.804 138.696 233.452 132.296 237.612 128.904C239.916 127.048 242.156 126.376 244.332 126.888C245.804 127.208 246.956 128.04 247.788 129.384C249.132 131.56 249.644 135.048 249.324 139.848C249.132 143.24 248.588 146.76 247.692 150.408C246.028 157.512 243.244 164.712 239.34 172.008C235.436 179.24 231.532 184.968 227.628 189.192C228.972 194.76 231.276 197.896 234.54 198.6C237.292 199.24 239.916 198.504 242.412 196.392C244.972 194.216 247.596 191.176 250.284 187.272C249.964 184.776 249.772 182.024 249.708 179.016C249.644 169.864 251.148 160.776 254.22 151.752C257.228 142.984 260.748 136.968 264.78 133.704C267.084 131.784 269.356 131.08 271.596 131.592C273.068 131.848 274.22 132.648 275.052 133.992C276.332 136.104 276.812 139.432 276.492 143.976C276.3 147.112 275.788 150.344 274.956 153.672C273.292 160.328 270.572 167.048 266.796 173.832C263.02 180.616 259.212 186.024 255.372 190.056C256.652 195.112 258.892 197.992 262.092 198.696C264.716 199.272 267.276 198.568 269.772 196.584C272.268 194.536 274.828 191.656 277.452 187.944C277.836 187.432 278.316 187.144 278.892 187.08ZM226.38 177.48C226.38 179.656 226.476 181.672 226.668 183.528C229.548 179.944 232.3 175.72 234.924 170.856C238.956 163.368 241.804 156.2 243.468 149.352C244.428 145.128 244.94 141.352 245.004 138.024C245.068 134.632 244.748 132.552 244.044 131.784C243.852 131.464 243.66 131.272 243.468 131.208C243.276 131.144 243.116 131.112 242.988 131.112C242.22 131.112 241.356 131.528 240.396 132.36C236.876 135.176 233.708 140.904 230.892 149.544C227.82 158.76 226.316 168.072 226.38 177.48ZM267.564 137.064C264.172 139.88 261.068 145.416 258.252 153.672C255.436 161.864 254.06 170.312 254.124 179.016C254.124 181 254.22 182.824 254.412 184.488C257.164 181.16 259.82 177.224 262.38 172.68C266.348 165.704 269.1 159.016 270.636 152.616C271.596 148.776 272.108 145.288 272.172 142.152C272.236 139.016 271.948 137.096 271.308 136.392C271.116 136.072 270.924 135.912 270.732 135.912C270.604 135.848 270.476 135.816 270.348 135.816C269.516 135.816 268.588 136.232 267.564 137.064Z" fill="#FF7A00"/>
</g>
<path d="M1.566 259.39C1.686 259.93 1.908 260.356 2.232 260.668C2.556 260.98 3.006 261.136 3.582 261.136C4.05 261.136 4.428 261.046 4.716 260.866C5.016 260.674 5.244 260.434 5.4 260.146C5.568 259.846 5.682 259.51 5.742 259.138C5.802 258.754 5.832 258.364 5.832 257.968V249.256H7.128V258.508C7.128 258.94 7.068 259.384 6.948 259.84C6.84 260.284 6.642 260.692 6.354 261.064C6.078 261.424 5.712 261.724 5.256 261.964C4.8 262.204 4.23 262.324 3.546 262.324C2.67 262.324 1.938 262.102 1.35 261.658C0.762 261.202 0.396 260.536 0.252 259.66L1.566 259.39ZM17.1976 257.788C17.1976 257.32 17.1196 256.882 16.9636 256.474C16.8196 256.066 16.6096 255.712 16.3336 255.412C16.0576 255.112 15.7216 254.878 15.3256 254.71C14.9416 254.53 14.5036 254.44 14.0116 254.44C13.5196 254.44 13.0756 254.53 12.6796 254.71C12.2956 254.878 11.9656 255.112 11.6896 255.412C11.4256 255.712 11.2156 256.066 11.0596 256.474C10.9156 256.882 10.8436 257.32 10.8436 257.788C10.8436 258.256 10.9156 258.694 11.0596 259.102C11.2156 259.51 11.4256 259.864 11.6896 260.164C11.9656 260.464 12.2956 260.704 12.6796 260.884C13.0756 261.052 13.5196 261.136 14.0116 261.136C14.5036 261.136 14.9416 261.052 15.3256 260.884C15.7216 260.704 16.0576 260.464 16.3336 260.164C16.6096 259.864 16.8196 259.51 16.9636 259.102C17.1196 258.694 17.1976 258.256 17.1976 257.788ZM18.4936 257.788C18.4936 258.424 18.3796 259.012 18.1516 259.552C17.9356 260.092 17.6296 260.56 17.2336 260.956C16.8376 261.352 16.3636 261.664 15.8116 261.892C15.2716 262.108 14.6716 262.216 14.0116 262.216C13.3636 262.216 12.7636 262.108 12.2116 261.892C11.6716 261.664 11.2036 261.352 10.8076 260.956C10.4116 260.56 10.0996 260.092 9.87159 259.552C9.65559 259.012 9.54759 258.424 9.54759 257.788C9.54759 257.152 9.65559 256.564 9.87159 256.024C10.0996 255.484 10.4116 255.016 10.8076 254.62C11.2036 254.224 11.6716 253.918 12.2116 253.702C12.7636 253.474 13.3636 253.36 14.0116 253.36C14.6716 253.36 15.2716 253.474 15.8116 253.702C16.3636 253.918 16.8376 254.224 17.2336 254.62C17.6296 255.016 17.9356 255.484 18.1516 256.024C18.3796 256.564 18.4936 257.152 18.4936 257.788ZM22.3775 250.336C22.3775 250.588 22.2875 250.798 22.1075 250.966C21.9275 251.122 21.7295 251.2 21.5135 251.2C21.2975 251.2 21.0995 251.122 20.9195 250.966C20.7395 250.798 20.6495 250.588 20.6495 250.336C20.6495 250.084 20.7395 249.88 20.9195 249.724C21.0995 249.556 21.2975 249.472 21.5135 249.472C21.7295 249.472 21.9275 249.556 22.1075 249.724C22.2875 249.88 22.3775 250.084 22.3775 250.336ZM22.1075 262H20.9195V253.576H22.1075V262ZM26.1077 253.576C26.1317 253.804 26.1437 254.032 26.1437 254.26C26.1557 254.476 26.1617 254.698 26.1617 254.926H26.1977C26.3297 254.698 26.4977 254.488 26.7017 254.296C26.9057 254.104 27.1337 253.942 27.3857 253.81C27.6377 253.666 27.9017 253.558 28.1777 253.486C28.4657 253.402 28.7477 253.36 29.0237 253.36C30.1037 253.36 30.9017 253.648 31.4177 254.224C31.9337 254.788 32.1917 255.598 32.1917 256.654V262H31.0037V257.338C31.0037 256.402 30.8417 255.688 30.5177 255.196C30.1937 254.692 29.5937 254.44 28.7177 254.44C28.6577 254.44 28.4897 254.464 28.2137 254.512C27.9377 254.56 27.6437 254.692 27.3317 254.908C27.0317 255.124 26.7617 255.448 26.5217 255.88C26.2817 256.312 26.1617 256.912 26.1617 257.68V262H24.9737V255.43C24.9737 255.202 24.9617 254.914 24.9377 254.566C24.9257 254.218 24.9077 253.888 24.8837 253.576H26.1077ZM41.1195 253.576C41.1435 253.804 41.1555 254.032 41.1555 254.26C41.1675 254.476 41.1735 254.698 41.1735 254.926H41.2095C41.3415 254.698 41.5095 254.488 41.7135 254.296C41.9175 254.104 42.1455 253.942 42.3975 253.81C42.6495 253.666 42.9135 253.558 43.1895 253.486C43.4775 253.402 43.7595 253.36 44.0355 253.36C45.1155 253.36 45.9135 253.648 46.4295 254.224C46.9455 254.788 47.2035 255.598 47.2035 256.654V262H46.0155V257.338C46.0155 256.402 45.8535 255.688 45.5295 255.196C45.2055 254.692 44.6055 254.44 43.7295 254.44C43.6695 254.44 43.5015 254.464 43.2255 254.512C42.9495 254.56 42.6555 254.692 42.3435 254.908C42.0435 255.124 41.7735 255.448 41.5335 255.88C41.2935 256.312 41.1735 256.912 41.1735 257.68V262H39.9855V255.43C39.9855 255.202 39.9735 254.914 39.9495 254.566C39.9375 254.218 39.9195 253.888 39.8955 253.576H41.1195ZM57.2054 257.788C57.2054 257.32 57.1274 256.882 56.9714 256.474C56.8274 256.066 56.6174 255.712 56.3414 255.412C56.0654 255.112 55.7294 254.878 55.3334 254.71C54.9494 254.53 54.5114 254.44 54.0194 254.44C53.5274 254.44 53.0834 254.53 52.6874 254.71C52.3034 254.878 51.9734 255.112 51.6974 255.412C51.4334 255.712 51.2234 256.066 51.0674 256.474C50.9234 256.882 50.8514 257.32 50.8514 257.788C50.8514 258.256 50.9234 258.694 51.0674 259.102C51.2234 259.51 51.4334 259.864 51.6974 260.164C51.9734 260.464 52.3034 260.704 52.6874 260.884C53.0834 261.052 53.5274 261.136 54.0194 261.136C54.5114 261.136 54.9494 261.052 55.3334 260.884C55.7294 260.704 56.0654 260.464 56.3414 260.164C56.6174 259.864 56.8274 259.51 56.9714 259.102C57.1274 258.694 57.2054 258.256 57.2054 257.788ZM58.5014 257.788C58.5014 258.424 58.3874 259.012 58.1594 259.552C57.9434 260.092 57.6374 260.56 57.2414 260.956C56.8454 261.352 56.3714 261.664 55.8194 261.892C55.2794 262.108 54.6794 262.216 54.0194 262.216C53.3714 262.216 52.7714 262.108 52.2194 261.892C51.6794 261.664 51.2114 261.352 50.8154 260.956C50.4194 260.56 50.1074 260.092 49.8794 259.552C49.6634 259.012 49.5554 258.424 49.5554 257.788C49.5554 257.152 49.6634 256.564 49.8794 256.024C50.1074 255.484 50.4194 255.016 50.8154 254.62C51.2114 254.224 51.6794 253.918 52.2194 253.702C52.7714 253.474 53.3714 253.36 54.0194 253.36C54.6794 253.36 55.2794 253.474 55.8194 253.702C56.3714 253.918 56.8454 254.224 57.2414 254.62C57.6374 255.016 57.9434 255.484 58.1594 256.024C58.3874 256.564 58.5014 257.152 58.5014 257.788ZM61.0173 253.576L62.9613 260.416H62.9973L65.2473 253.576H66.4713L68.7213 260.416H68.7573L70.7013 253.576H72.1053L69.4413 262H68.1093L65.8773 255.088H65.8413L63.6093 262H62.2773L59.6133 253.576H61.0173ZM73.7432 264.52H72.5372L73.7432 260.29H75.2012L73.7432 264.52ZM87.1467 255.574C86.9667 255.226 86.7267 254.95 86.4267 254.746C86.1267 254.542 85.7607 254.44 85.3287 254.44C85.1247 254.44 84.9147 254.464 84.6987 254.512C84.4947 254.56 84.3087 254.638 84.1407 254.746C83.9727 254.842 83.8347 254.968 83.7267 255.124C83.6307 255.28 83.5827 255.472 83.5827 255.7C83.5827 256.096 83.7207 256.384 83.9967 256.564C84.2727 256.744 84.6867 256.9 85.2387 257.032L86.4447 257.32C87.0327 257.452 87.5187 257.722 87.9027 258.13C88.2987 258.526 88.4967 259.024 88.4967 259.624C88.4967 260.08 88.4007 260.476 88.2087 260.812C88.0287 261.136 87.7827 261.406 87.4707 261.622C87.1707 261.826 86.8227 261.976 86.4267 262.072C86.0307 262.168 85.6287 262.216 85.2207 262.216C84.5727 262.216 83.9667 262.096 83.4027 261.856C82.8507 261.604 82.3767 261.178 81.9807 260.578L83.0067 259.876C83.2467 260.26 83.5467 260.566 83.9067 260.794C84.2787 261.022 84.7167 261.136 85.2207 261.136C85.4607 261.136 85.7007 261.112 85.9407 261.064C86.1807 261.004 86.3907 260.92 86.5707 260.812C86.7627 260.692 86.9127 260.542 87.0207 260.362C87.1407 260.182 87.2007 259.972 87.2007 259.732C87.2007 259.312 87.0447 259.012 86.7327 258.832C86.4207 258.64 86.0427 258.49 85.5987 258.382L84.4467 258.112C84.3027 258.076 84.1047 258.016 83.8527 257.932C83.6127 257.848 83.3727 257.722 83.1327 257.554C82.9047 257.386 82.7067 257.17 82.5387 256.906C82.3707 256.63 82.2867 256.294 82.2867 255.898C82.2867 255.466 82.3707 255.088 82.5387 254.764C82.7187 254.44 82.9527 254.176 83.2407 253.972C83.5407 253.768 83.8767 253.618 84.2487 253.522C84.6207 253.414 85.0047 253.36 85.4007 253.36C85.9887 253.36 86.5347 253.474 87.0387 253.702C87.5427 253.93 87.9327 254.32 88.2087 254.872L87.1467 255.574ZM90.3468 248.392H91.5348V254.926H91.5708C91.7028 254.698 91.8708 254.488 92.0748 254.296C92.2788 254.104 92.5068 253.942 92.7588 253.81C93.0108 253.666 93.2748 253.558 93.5508 253.486C93.8388 253.402 94.1208 253.36 94.3968 253.36C95.4768 253.36 96.2748 253.648 96.7908 254.224C97.3068 254.788 97.5648 255.598 97.5648 256.654V262H96.3768V257.338C96.3768 256.402 96.2148 255.688 95.8908 255.196C95.5668 254.692 94.9668 254.44 94.0908 254.44C94.0308 254.44 93.8628 254.464 93.5868 254.512C93.3108 254.56 93.0168 254.692 92.7048 254.908C92.4048 255.124 92.1348 255.448 91.8948 255.88C91.6548 256.312 91.5348 256.912 91.5348 257.68V262H90.3468V248.392ZM105.137 257.806C104.837 257.806 104.459 257.824 104.003 257.86C103.559 257.884 103.127 257.956 102.707 258.076C102.299 258.184 101.945 258.358 101.645 258.598C101.357 258.838 101.213 259.168 101.213 259.588C101.213 259.864 101.267 260.104 101.375 260.308C101.495 260.5 101.651 260.662 101.843 260.794C102.035 260.914 102.245 261.004 102.473 261.064C102.713 261.112 102.953 261.136 103.193 261.136C103.625 261.136 103.997 261.064 104.309 260.92C104.633 260.776 104.903 260.584 105.119 260.344C105.335 260.092 105.491 259.804 105.587 259.48C105.695 259.144 105.749 258.79 105.749 258.418V257.806H105.137ZM105.749 256.834V256.618C105.749 255.166 105.029 254.44 103.589 254.44C102.605 254.44 101.747 254.77 101.015 255.43L100.295 254.584C101.087 253.768 102.275 253.36 103.859 253.36C104.267 253.36 104.657 253.42 105.029 253.54C105.413 253.66 105.743 253.846 106.019 254.098C106.295 254.338 106.517 254.644 106.685 255.016C106.853 255.388 106.937 255.832 106.937 256.348V260.11C106.937 260.434 106.949 260.776 106.973 261.136C107.009 261.484 107.045 261.772 107.081 262H105.929C105.893 261.796 105.863 261.574 105.839 261.334C105.827 261.094 105.821 260.86 105.821 260.632H105.785C105.437 261.196 105.023 261.604 104.543 261.856C104.075 262.096 103.499 262.216 102.815 262.216C102.443 262.216 102.083 262.162 101.735 262.054C101.387 261.958 101.075 261.808 100.799 261.604C100.535 261.388 100.319 261.13 100.151 260.83C99.9947 260.518 99.9167 260.158 99.9167 259.75C99.9167 259.066 100.091 258.532 100.439 258.148C100.799 257.752 101.243 257.458 101.771 257.266C102.311 257.074 102.881 256.954 103.481 256.906C104.093 256.858 104.651 256.834 105.155 256.834H105.749ZM109.809 256.204C109.809 255.832 109.797 255.454 109.773 255.07C109.761 254.686 109.749 254.188 109.737 253.576H110.907V255.142H110.943C111.027 254.914 111.147 254.698 111.303 254.494C111.459 254.278 111.645 254.086 111.861 253.918C112.089 253.75 112.347 253.618 112.635 253.522C112.935 253.414 113.271 253.36 113.643 253.36C113.979 253.36 114.273 253.396 114.525 253.468L114.291 254.638C114.135 254.578 113.907 254.548 113.607 254.548C113.151 254.548 112.761 254.638 112.437 254.818C112.113 254.986 111.843 255.208 111.627 255.484C111.411 255.748 111.249 256.036 111.141 256.348C111.045 256.66 110.997 256.96 110.997 257.248V262H109.809V256.204ZM121.895 257.14C121.895 256.336 121.655 255.688 121.175 255.196C120.695 254.692 120.023 254.44 119.159 254.44C118.775 254.44 118.403 254.518 118.043 254.674C117.683 254.818 117.365 255.016 117.089 255.268C116.825 255.52 116.609 255.808 116.441 256.132C116.285 256.456 116.207 256.792 116.207 257.14H121.895ZM116.171 258.112C116.207 258.532 116.309 258.928 116.477 259.3C116.645 259.672 116.867 259.996 117.143 260.272C117.419 260.536 117.737 260.746 118.097 260.902C118.457 261.058 118.847 261.136 119.267 261.136C119.903 261.136 120.449 260.992 120.905 260.704C121.373 260.404 121.727 260.062 121.967 259.678L122.885 260.434C122.381 261.07 121.823 261.526 121.211 261.802C120.611 262.078 119.963 262.216 119.267 262.216C118.643 262.216 118.061 262.108 117.521 261.892C116.993 261.664 116.537 261.352 116.153 260.956C115.769 260.56 115.463 260.092 115.235 259.552C115.019 259.012 114.911 258.424 114.911 257.788C114.911 257.152 115.019 256.564 115.235 256.024C115.451 255.484 115.751 255.016 116.135 254.62C116.519 254.224 116.969 253.918 117.485 253.702C118.001 253.474 118.559 253.36 119.159 253.36C119.795 253.36 120.365 253.474 120.869 253.702C121.373 253.93 121.793 254.236 122.129 254.62C122.477 254.992 122.741 255.436 122.921 255.952C123.101 256.456 123.191 256.996 123.191 257.572V258.112H116.171ZM133.487 260.542L136.061 253.576H137.501L133.289 264.196C133.037 264.844 132.713 265.36 132.317 265.744C131.933 266.128 131.375 266.32 130.643 266.32C130.463 266.32 130.277 266.314 130.085 266.302C129.905 266.29 129.725 266.254 129.545 266.194L129.671 265.042C129.923 265.174 130.223 265.24 130.571 265.24C130.991 265.24 131.321 265.108 131.561 264.844C131.801 264.58 132.011 264.208 132.191 263.728L132.803 262.108L129.347 253.576H130.841L133.487 260.542ZM146.256 257.788C146.256 257.32 146.178 256.882 146.022 256.474C145.878 256.066 145.668 255.712 145.392 255.412C145.116 255.112 144.78 254.878 144.384 254.71C144 254.53 143.562 254.44 143.07 254.44C142.578 254.44 142.134 254.53 141.738 254.71C141.354 254.878 141.024 255.112 140.748 255.412C140.484 255.712 140.274 256.066 140.118 256.474C139.974 256.882 139.902 257.32 139.902 257.788C139.902 258.256 139.974 258.694 140.118 259.102C140.274 259.51 140.484 259.864 140.748 260.164C141.024 260.464 141.354 260.704 141.738 260.884C142.134 261.052 142.578 261.136 143.07 261.136C143.562 261.136 144 261.052 144.384 260.884C144.78 260.704 145.116 260.464 145.392 260.164C145.668 259.864 145.878 259.51 146.022 259.102C146.178 258.694 146.256 258.256 146.256 257.788ZM147.552 257.788C147.552 258.424 147.438 259.012 147.21 259.552C146.994 260.092 146.688 260.56 146.292 260.956C145.896 261.352 145.422 261.664 144.87 261.892C144.33 262.108 143.73 262.216 143.07 262.216C142.422 262.216 141.822 262.108 141.27 261.892C140.73 261.664 140.262 261.352 139.866 260.956C139.47 260.56 139.158 260.092 138.93 259.552C138.714 259.012 138.606 258.424 138.606 257.788C138.606 257.152 138.714 256.564 138.93 256.024C139.158 255.484 139.47 255.016 139.866 254.62C140.262 254.224 140.73 253.918 141.27 253.702C141.822 253.474 142.422 253.36 143.07 253.36C143.73 253.36 144.33 253.474 144.87 253.702C145.422 253.918 145.896 254.224 146.292 254.62C146.688 255.016 146.994 255.484 147.21 256.024C147.438 256.564 147.552 257.152 147.552 257.788ZM155.792 262C155.768 261.772 155.75 261.55 155.738 261.334C155.738 261.106 155.738 260.878 155.738 260.65H155.702C155.57 260.878 155.402 261.088 155.198 261.28C154.994 261.472 154.766 261.64 154.514 261.784C154.262 261.916 153.992 262.018 153.704 262.09C153.428 262.174 153.152 262.216 152.876 262.216C151.796 262.216 150.998 261.934 150.482 261.37C149.966 260.794 149.708 259.978 149.708 258.922V253.576H150.896V258.238C150.896 258.706 150.932 259.12 151.004 259.48C151.076 259.84 151.196 260.146 151.364 260.398C151.544 260.638 151.778 260.824 152.066 260.956C152.366 261.076 152.738 261.136 153.182 261.136C153.242 261.136 153.41 261.112 153.686 261.064C153.962 261.016 154.25 260.884 154.55 260.668C154.862 260.452 155.138 260.128 155.378 259.696C155.618 259.264 155.738 258.664 155.738 257.896V253.576H156.926V260.146C156.926 260.374 156.932 260.662 156.944 261.01C156.968 261.358 156.992 261.688 157.016 262H155.792ZM159.836 256.204C159.836 255.832 159.824 255.454 159.8 255.07C159.788 254.686 159.776 254.188 159.764 253.576H160.934V255.142H160.97C161.054 254.914 161.174 254.698 161.33 254.494C161.486 254.278 161.672 254.086 161.888 253.918C162.116 253.75 162.374 253.618 162.662 253.522C162.962 253.414 163.298 253.36 163.67 253.36C164.006 253.36 164.3 253.396 164.552 253.468L164.318 254.638C164.162 254.578 163.934 254.548 163.634 254.548C163.178 254.548 162.788 254.638 162.464 254.818C162.14 254.986 161.87 255.208 161.654 255.484C161.438 255.748 161.276 256.036 161.168 256.348C161.072 256.66 161.024 256.96 161.024 257.248V262H159.836V256.204ZM176.834 255.556C176.63 255.244 176.342 254.98 175.97 254.764C175.61 254.548 175.196 254.44 174.728 254.44C174.236 254.428 173.792 254.506 173.396 254.674C173.012 254.842 172.682 255.076 172.406 255.376C172.13 255.676 171.92 256.036 171.776 256.456C171.632 256.864 171.56 257.308 171.56 257.788C171.56 258.268 171.632 258.718 171.776 259.138C171.92 259.546 172.13 259.9 172.406 260.2C172.682 260.5 173.012 260.734 173.396 260.902C173.792 261.07 174.236 261.148 174.728 261.136C175.196 261.136 175.61 261.028 175.97 260.812C176.342 260.596 176.63 260.332 176.834 260.02L177.806 260.758C177.386 261.25 176.912 261.616 176.384 261.856C175.856 262.084 175.304 262.204 174.728 262.216C174.044 262.228 173.426 262.126 172.874 261.91C172.322 261.682 171.848 261.37 171.452 260.974C171.068 260.578 170.774 260.11 170.57 259.57C170.366 259.018 170.264 258.424 170.264 257.788C170.264 257.152 170.366 256.564 170.57 256.024C170.774 255.472 171.068 254.998 171.452 254.602C171.848 254.206 172.322 253.9 172.874 253.684C173.426 253.456 174.044 253.348 174.728 253.36C175.304 253.372 175.856 253.498 176.384 253.738C176.912 253.966 177.386 254.326 177.806 254.818L176.834 255.556ZM179.506 256.204C179.506 255.832 179.494 255.454 179.47 255.07C179.458 254.686 179.446 254.188 179.434 253.576H180.604V255.142H180.64C180.724 254.914 180.844 254.698 181 254.494C181.156 254.278 181.342 254.086 181.558 253.918C181.786 253.75 182.044 253.618 182.332 253.522C182.632 253.414 182.968 253.36 183.34 253.36C183.676 253.36 183.97 253.396 184.222 253.468L183.988 254.638C183.832 254.578 183.604 254.548 183.304 254.548C182.848 254.548 182.458 254.638 182.134 254.818C181.81 254.986 181.54 255.208 181.324 255.484C181.108 255.748 180.946 256.036 180.838 256.348C180.742 256.66 180.694 256.96 180.694 257.248V262H179.506V256.204ZM191.592 257.14C191.592 256.336 191.352 255.688 190.872 255.196C190.392 254.692 189.72 254.44 188.856 254.44C188.472 254.44 188.1 254.518 187.74 254.674C187.38 254.818 187.062 255.016 186.786 255.268C186.522 255.52 186.306 255.808 186.138 256.132C185.982 256.456 185.904 256.792 185.904 257.14H191.592ZM185.868 258.112C185.904 258.532 186.006 258.928 186.174 259.3C186.342 259.672 186.564 259.996 186.84 260.272C187.116 260.536 187.434 260.746 187.794 260.902C188.154 261.058 188.544 261.136 188.964 261.136C189.6 261.136 190.146 260.992 190.602 260.704C191.07 260.404 191.424 260.062 191.664 259.678L192.582 260.434C192.078 261.07 191.52 261.526 190.908 261.802C190.308 262.078 189.66 262.216 188.964 262.216C188.34 262.216 187.758 262.108 187.218 261.892C186.69 261.664 186.234 261.352 185.85 260.956C185.466 260.56 185.16 260.092 184.932 259.552C184.716 259.012 184.608 258.424 184.608 257.788C184.608 257.152 184.716 256.564 184.932 256.024C185.148 255.484 185.448 255.016 185.832 254.62C186.216 254.224 186.666 253.918 187.182 253.702C187.698 253.474 188.256 253.36 188.856 253.36C189.492 253.36 190.062 253.474 190.566 253.702C191.07 253.93 191.49 254.236 191.826 254.62C192.174 254.992 192.438 255.436 192.618 255.952C192.798 256.456 192.888 256.996 192.888 257.572V258.112H185.868ZM199.83 257.806C199.53 257.806 199.152 257.824 198.696 257.86C198.252 257.884 197.82 257.956 197.4 258.076C196.992 258.184 196.638 258.358 196.338 258.598C196.05 258.838 195.906 259.168 195.906 259.588C195.906 259.864 195.96 260.104 196.068 260.308C196.188 260.5 196.344 260.662 196.536 260.794C196.728 260.914 196.938 261.004 197.166 261.064C197.406 261.112 197.646 261.136 197.886 261.136C198.318 261.136 198.69 261.064 199.002 260.92C199.326 260.776 199.596 260.584 199.812 260.344C200.028 260.092 200.184 259.804 200.28 259.48C200.388 259.144 200.442 258.79 200.442 258.418V257.806H199.83ZM200.442 256.834V256.618C200.442 255.166 199.722 254.44 198.282 254.44C197.298 254.44 196.44 254.77 195.708 255.43L194.988 254.584C195.78 253.768 196.968 253.36 198.552 253.36C198.96 253.36 199.35 253.42 199.722 253.54C200.106 253.66 200.436 253.846 200.712 254.098C200.988 254.338 201.21 254.644 201.378 255.016C201.546 255.388 201.63 255.832 201.63 256.348V260.11C201.63 260.434 201.642 260.776 201.666 261.136C201.702 261.484 201.738 261.772 201.774 262H200.622C200.586 261.796 200.556 261.574 200.532 261.334C200.52 261.094 200.514 260.86 200.514 260.632H200.478C200.13 261.196 199.716 261.604 199.236 261.856C198.768 262.096 198.192 262.216 197.508 262.216C197.136 262.216 196.776 262.162 196.428 262.054C196.08 261.958 195.768 261.808 195.492 261.604C195.228 261.388 195.012 261.13 194.844 260.83C194.688 260.518 194.61 260.158 194.61 259.75C194.61 259.066 194.784 258.532 195.132 258.148C195.492 257.752 195.936 257.458 196.464 257.266C197.004 257.074 197.574 256.954 198.174 256.906C198.786 256.858 199.344 256.834 199.848 256.834H200.442ZM208.732 254.656H206.302V259.624C206.302 259.936 206.332 260.194 206.392 260.398C206.452 260.59 206.536 260.74 206.644 260.848C206.752 260.956 206.878 261.034 207.022 261.082C207.178 261.118 207.346 261.136 207.526 261.136C207.73 261.136 207.94 261.106 208.156 261.046C208.372 260.986 208.57 260.908 208.75 260.812L208.804 261.91C208.36 262.114 207.826 262.216 207.202 262.216C206.974 262.216 206.734 262.186 206.482 262.126C206.242 262.066 206.02 261.952 205.816 261.784C205.612 261.616 205.444 261.388 205.312 261.1C205.18 260.812 205.114 260.434 205.114 259.966V254.656H203.332V253.576H205.114V251.2H206.302V253.576H208.732V254.656ZM212.081 250.336C212.081 250.588 211.991 250.798 211.811 250.966C211.631 251.122 211.433 251.2 211.217 251.2C211.001 251.2 210.803 251.122 210.623 250.966C210.443 250.798 210.353 250.588 210.353 250.336C210.353 250.084 210.443 249.88 210.623 249.724C210.803 249.556 211.001 249.472 211.217 249.472C211.433 249.472 211.631 249.556 211.811 249.724C211.991 249.88 212.081 250.084 212.081 250.336ZM211.811 262H210.623V253.576H211.811V262ZM221.895 257.788C221.895 257.32 221.817 256.882 221.661 256.474C221.517 256.066 221.307 255.712 221.031 255.412C220.755 255.112 220.419 254.878 220.023 254.71C219.639 254.53 219.201 254.44 218.709 254.44C218.217 254.44 217.773 254.53 217.377 254.71C216.993 254.878 216.663 255.112 216.387 255.412C216.123 255.712 215.913 256.066 215.757 256.474C215.613 256.882 215.541 257.32 215.541 257.788C215.541 258.256 215.613 258.694 215.757 259.102C215.913 259.51 216.123 259.864 216.387 260.164C216.663 260.464 216.993 260.704 217.377 260.884C217.773 261.052 218.217 261.136 218.709 261.136C219.201 261.136 219.639 261.052 220.023 260.884C220.419 260.704 220.755 260.464 221.031 260.164C221.307 259.864 221.517 259.51 221.661 259.102C221.817 258.694 221.895 258.256 221.895 257.788ZM223.191 257.788C223.191 258.424 223.077 259.012 222.849 259.552C222.633 260.092 222.327 260.56 221.931 260.956C221.535 261.352 221.061 261.664 220.509 261.892C219.969 262.108 219.369 262.216 218.709 262.216C218.061 262.216 217.461 262.108 216.909 261.892C216.369 261.664 215.901 261.352 215.505 260.956C215.109 260.56 214.797 260.092 214.569 259.552C214.353 259.012 214.245 258.424 214.245 257.788C214.245 257.152 214.353 256.564 214.569 256.024C214.797 255.484 215.109 255.016 215.505 254.62C215.901 254.224 216.369 253.918 216.909 253.702C217.461 253.474 218.061 253.36 218.709 253.36C219.369 253.36 219.969 253.474 220.509 253.702C221.061 253.918 221.535 254.224 221.931 254.62C222.327 255.016 222.633 255.484 222.849 256.024C223.077 256.564 223.191 257.152 223.191 257.788ZM226.481 253.576C226.505 253.804 226.517 254.032 226.517 254.26C226.529 254.476 226.535 254.698 226.535 254.926H226.571C226.703 254.698 226.871 254.488 227.075 254.296C227.279 254.104 227.507 253.942 227.759 253.81C228.011 253.666 228.275 253.558 228.551 253.486C228.839 253.402 229.121 253.36 229.397 253.36C230.477 253.36 231.275 253.648 231.791 254.224C232.307 254.788 232.565 255.598 232.565 256.654V262H231.377V257.338C231.377 256.402 231.215 255.688 230.891 255.196C230.567 254.692 229.967 254.44 229.091 254.44C229.031 254.44 228.863 254.464 228.587 254.512C228.311 254.56 228.017 254.692 227.705 254.908C227.405 255.124 227.135 255.448 226.895 255.88C226.655 256.312 226.535 256.912 226.535 257.68V262H225.347V255.43C225.347 255.202 225.335 254.914 225.311 254.566C225.299 254.218 225.281 253.888 225.257 253.576H226.481ZM239.813 255.574C239.633 255.226 239.393 254.95 239.093 254.746C238.793 254.542 238.427 254.44 237.995 254.44C237.791 254.44 237.581 254.464 237.365 254.512C237.161 254.56 236.975 254.638 236.807 254.746C236.639 254.842 236.501 254.968 236.393 255.124C236.297 255.28 236.249 255.472 236.249 255.7C236.249 256.096 236.387 256.384 236.663 256.564C236.939 256.744 237.353 256.9 237.905 257.032L239.111 257.32C239.699 257.452 240.185 257.722 240.569 258.13C240.965 258.526 241.163 259.024 241.163 259.624C241.163 260.08 241.067 260.476 240.875 260.812C240.695 261.136 240.449 261.406 240.137 261.622C239.837 261.826 239.489 261.976 239.093 262.072C238.697 262.168 238.295 262.216 237.887 262.216C237.239 262.216 236.633 262.096 236.069 261.856C235.517 261.604 235.043 261.178 234.647 260.578L235.673 259.876C235.913 260.26 236.213 260.566 236.573 260.794C236.945 261.022 237.383 261.136 237.887 261.136C238.127 261.136 238.367 261.112 238.607 261.064C238.847 261.004 239.057 260.92 239.237 260.812C239.429 260.692 239.579 260.542 239.687 260.362C239.807 260.182 239.867 259.972 239.867 259.732C239.867 259.312 239.711 259.012 239.399 258.832C239.087 258.64 238.709 258.49 238.265 258.382L237.113 258.112C236.969 258.076 236.771 258.016 236.519 257.932C236.279 257.848 236.039 257.722 235.799 257.554C235.571 257.386 235.373 257.17 235.205 256.906C235.037 256.63 234.953 256.294 234.953 255.898C234.953 255.466 235.037 255.088 235.205 254.764C235.385 254.44 235.619 254.176 235.907 253.972C236.207 253.768 236.543 253.618 236.915 253.522C237.287 253.414 237.671 253.36 238.067 253.36C238.655 253.36 239.201 253.474 239.705 253.702C240.209 253.93 240.599 254.32 240.875 254.872L239.813 255.574ZM248.383 253.576L250.327 260.416H250.363L252.613 253.576H253.837L256.087 260.416H256.123L258.067 253.576H259.471L256.807 262H255.475L253.243 255.088H253.207L250.975 262H249.643L246.979 253.576H248.383ZM262.741 250.336C262.741 250.588 262.651 250.798 262.471 250.966C262.291 251.122 262.093 251.2 261.877 251.2C261.661 251.2 261.463 251.122 261.283 250.966C261.103 250.798 261.013 250.588 261.013 250.336C261.013 250.084 261.103 249.88 261.283 249.724C261.463 249.556 261.661 249.472 261.877 249.472C262.093 249.472 262.291 249.556 262.471 249.724C262.651 249.88 262.741 250.084 262.741 250.336ZM262.471 262H261.283V253.576H262.471V262ZM269.693 254.656H267.263V259.624C267.263 259.936 267.293 260.194 267.353 260.398C267.413 260.59 267.497 260.74 267.605 260.848C267.713 260.956 267.839 261.034 267.983 261.082C268.139 261.118 268.307 261.136 268.487 261.136C268.691 261.136 268.901 261.106 269.117 261.046C269.333 260.986 269.531 260.908 269.711 260.812L269.765 261.91C269.321 262.114 268.787 262.216 268.163 262.216C267.935 262.216 267.695 262.186 267.443 262.126C267.203 262.066 266.981 261.952 266.777 261.784C266.573 261.616 266.405 261.388 266.273 261.1C266.141 260.812 266.075 260.434 266.075 259.966V254.656H264.293V253.576H266.075V251.2H267.263V253.576H269.693V254.656ZM271.314 248.392H272.502V254.926H272.538C272.67 254.698 272.838 254.488 273.042 254.296C273.246 254.104 273.474 253.942 273.726 253.81C273.978 253.666 274.242 253.558 274.518 253.486C274.806 253.402 275.088 253.36 275.364 253.36C276.444 253.36 277.242 253.648 277.758 254.224C278.274 254.788 278.532 255.598 278.532 256.654V262H277.344V257.338C277.344 256.402 277.182 255.688 276.858 255.196C276.534 254.692 275.934 254.44 275.058 254.44C274.998 254.44 274.83 254.464 274.554 254.512C274.278 254.56 273.984 254.692 273.672 254.908C273.372 255.124 273.102 255.448 272.862 255.88C272.622 256.312 272.502 256.912 272.502 257.68V262H271.314V248.392ZM291.113 257.806C290.813 257.806 290.435 257.824 289.979 257.86C289.535 257.884 289.103 257.956 288.683 258.076C288.275 258.184 287.921 258.358 287.621 258.598C287.333 258.838 287.189 259.168 287.189 259.588C287.189 259.864 287.243 260.104 287.351 260.308C287.471 260.5 287.627 260.662 287.819 260.794C288.011 260.914 288.221 261.004 288.449 261.064C288.689 261.112 288.929 261.136 289.169 261.136C289.601 261.136 289.973 261.064 290.285 260.92C290.609 260.776 290.879 260.584 291.095 260.344C291.311 260.092 291.467 259.804 291.563 259.48C291.671 259.144 291.725 258.79 291.725 258.418V257.806H291.113ZM291.725 256.834V256.618C291.725 255.166 291.005 254.44 289.565 254.44C288.581 254.44 287.723 254.77 286.991 255.43L286.271 254.584C287.063 253.768 288.251 253.36 289.835 253.36C290.243 253.36 290.633 253.42 291.005 253.54C291.389 253.66 291.719 253.846 291.995 254.098C292.271 254.338 292.493 254.644 292.661 255.016C292.829 255.388 292.913 255.832 292.913 256.348V260.11C292.913 260.434 292.925 260.776 292.949 261.136C292.985 261.484 293.021 261.772 293.057 262H291.905C291.869 261.796 291.839 261.574 291.815 261.334C291.803 261.094 291.797 260.86 291.797 260.632H291.761C291.413 261.196 290.999 261.604 290.519 261.856C290.051 262.096 289.475 262.216 288.791 262.216C288.419 262.216 288.059 262.162 287.711 262.054C287.363 261.958 287.051 261.808 286.775 261.604C286.511 261.388 286.295 261.13 286.127 260.83C285.971 260.518 285.893 260.158 285.893 259.75C285.893 259.066 286.067 258.532 286.415 258.148C286.775 257.752 287.219 257.458 287.747 257.266C288.287 257.074 288.857 256.954 289.457 256.906C290.069 256.858 290.627 256.834 291.131 256.834H291.725ZM296.793 253.576C296.817 253.804 296.829 254.032 296.829 254.26C296.841 254.476 296.847 254.698 296.847 254.926H296.883C297.015 254.698 297.183 254.488 297.387 254.296C297.591 254.104 297.819 253.942 298.071 253.81C298.323 253.666 298.587 253.558 298.863 253.486C299.151 253.402 299.433 253.36 299.709 253.36C300.789 253.36 301.587 253.648 302.103 254.224C302.619 254.788 302.877 255.598 302.877 256.654V262H301.689V257.338C301.689 256.402 301.527 255.688 301.203 255.196C300.879 254.692 300.279 254.44 299.403 254.44C299.343 254.44 299.175 254.464 298.899 254.512C298.623 254.56 298.329 254.692 298.017 254.908C297.717 255.124 297.447 255.448 297.207 255.88C296.967 256.312 296.847 256.912 296.847 257.68V262H295.659V255.43C295.659 255.202 295.647 254.914 295.623 254.566C295.611 254.218 295.593 253.888 295.569 253.576H296.793ZM312.879 257.788C312.879 257.32 312.801 256.882 312.645 256.474C312.501 256.066 312.291 255.712 312.015 255.412C311.739 255.112 311.403 254.878 311.007 254.71C310.623 254.53 310.185 254.44 309.693 254.44C309.201 254.44 308.757 254.53 308.361 254.71C307.977 254.878 307.647 255.112 307.371 255.412C307.107 255.712 306.897 256.066 306.741 256.474C306.597 256.882 306.525 257.32 306.525 257.788C306.525 258.256 306.597 258.694 306.741 259.102C306.897 259.51 307.107 259.864 307.371 260.164C307.647 260.464 307.977 260.704 308.361 260.884C308.757 261.052 309.201 261.136 309.693 261.136C310.185 261.136 310.623 261.052 311.007 260.884C311.403 260.704 311.739 260.464 312.015 260.164C312.291 259.864 312.501 259.51 312.645 259.102C312.801 258.694 312.879 258.256 312.879 257.788ZM314.175 257.788C314.175 258.424 314.061 259.012 313.833 259.552C313.617 260.092 313.311 260.56 312.915 260.956C312.519 261.352 312.045 261.664 311.493 261.892C310.953 262.108 310.353 262.216 309.693 262.216C309.045 262.216 308.445 262.108 307.893 261.892C307.353 261.664 306.885 261.352 306.489 260.956C306.093 260.56 305.781 260.092 305.553 259.552C305.337 259.012 305.229 258.424 305.229 257.788C305.229 257.152 305.337 256.564 305.553 256.024C305.781 255.484 306.093 255.016 306.489 254.62C306.885 254.224 307.353 253.918 307.893 253.702C308.445 253.474 309.045 253.36 309.693 253.36C310.353 253.36 310.953 253.474 311.493 253.702C312.045 253.918 312.519 254.224 312.915 254.62C313.311 255.016 313.617 255.484 313.833 256.024C314.061 256.564 314.175 257.152 314.175 257.788ZM320.687 254.656H318.257V259.624C318.257 259.936 318.287 260.194 318.347 260.398C318.407 260.59 318.491 260.74 318.599 260.848C318.707 260.956 318.833 261.034 318.977 261.082C319.133 261.118 319.301 261.136 319.481 261.136C319.685 261.136 319.895 261.106 320.111 261.046C320.327 260.986 320.525 260.908 320.705 260.812L320.759 261.91C320.315 262.114 319.781 262.216 319.157 262.216C318.929 262.216 318.689 262.186 318.437 262.126C318.197 262.066 317.975 261.952 317.771 261.784C317.567 261.616 317.399 261.388 317.267 261.1C317.135 260.812 317.069 260.434 317.069 259.966V254.656H315.287V253.576H317.069V251.2H318.257V253.576H320.687V254.656ZM322.308 248.392H323.496V254.926H323.532C323.664 254.698 323.832 254.488 324.036 254.296C324.24 254.104 324.468 253.942 324.72 253.81C324.972 253.666 325.236 253.558 325.512 253.486C325.8 253.402 326.082 253.36 326.358 253.36C327.438 253.36 328.236 253.648 328.752 254.224C329.268 254.788 329.526 255.598 329.526 256.654V262H328.338V257.338C328.338 256.402 328.176 255.688 327.852 255.196C327.528 254.692 326.928 254.44 326.052 254.44C325.992 254.44 325.824 254.464 325.548 254.512C325.272 254.56 324.978 254.692 324.666 254.908C324.366 255.124 324.096 255.448 323.856 255.88C323.616 256.312 323.496 256.912 323.496 257.68V262H322.308V248.392ZM338.862 257.14C338.862 256.336 338.622 255.688 338.142 255.196C337.662 254.692 336.99 254.44 336.126 254.44C335.742 254.44 335.37 254.518 335.01 254.674C334.65 254.818 334.332 255.016 334.056 255.268C333.792 255.52 333.576 255.808 333.408 256.132C333.252 256.456 333.174 256.792 333.174 257.14H338.862ZM333.138 258.112C333.174 258.532 333.276 258.928 333.444 259.3C333.612 259.672 333.834 259.996 334.11 260.272C334.386 260.536 334.704 260.746 335.064 260.902C335.424 261.058 335.814 261.136 336.234 261.136C336.87 261.136 337.416 260.992 337.872 260.704C338.34 260.404 338.694 260.062 338.934 259.678L339.852 260.434C339.348 261.07 338.79 261.526 338.178 261.802C337.578 262.078 336.93 262.216 336.234 262.216C335.61 262.216 335.028 262.108 334.488 261.892C333.96 261.664 333.504 261.352 333.12 260.956C332.736 260.56 332.43 260.092 332.202 259.552C331.986 259.012 331.878 258.424 331.878 257.788C331.878 257.152 331.986 256.564 332.202 256.024C332.418 255.484 332.718 255.016 333.102 254.62C333.486 254.224 333.936 253.918 334.452 253.702C334.968 253.474 335.526 253.36 336.126 253.36C336.762 253.36 337.332 253.474 337.836 253.702C338.34 253.93 338.76 254.236 339.096 254.62C339.444 254.992 339.708 255.436 339.888 255.952C340.068 256.456 340.158 256.996 340.158 257.572V258.112H333.138ZM342.438 256.204C342.438 255.832 342.426 255.454 342.402 255.07C342.39 254.686 342.378 254.188 342.366 253.576H343.536V255.142H343.572C343.656 254.914 343.776 254.698 343.932 254.494C344.088 254.278 344.274 254.086 344.49 253.918C344.718 253.75 344.976 253.618 345.264 253.522C345.564 253.414 345.9 253.36 346.272 253.36C346.608 253.36 346.902 253.396 347.154 253.468L346.92 254.638C346.764 254.578 346.536 254.548 346.236 254.548C345.78 254.548 345.39 254.638 345.066 254.818C344.742 254.986 344.472 255.208 344.256 255.484C344.04 255.748 343.878 256.036 343.77 256.348C343.674 256.66 343.626 256.96 343.626 257.248V262H342.438V256.204ZM8.982 282.788C8.982 282.32 8.904 281.882 8.748 281.474C8.604 281.066 8.394 280.712 8.118 280.412C7.842 280.112 7.506 279.878 7.11 279.71C6.726 279.53 6.288 279.44 5.796 279.44C5.304 279.44 4.854 279.53 4.446 279.71C4.038 279.878 3.684 280.112 3.384 280.412C3.084 280.712 2.85 281.066 2.682 281.474C2.514 281.882 2.43 282.32 2.43 282.788C2.43 283.256 2.514 283.694 2.682 284.102C2.85 284.51 3.084 284.864 3.384 285.164C3.684 285.464 4.038 285.704 4.446 285.884C4.854 286.052 5.304 286.136 5.796 286.136C6.288 286.136 6.726 286.052 7.11 285.884C7.506 285.704 7.842 285.464 8.118 285.164C8.394 284.864 8.604 284.51 8.748 284.102C8.904 283.694 8.982 283.256 8.982 282.788ZM1.296 278.576H2.484V279.98H2.52C2.712 279.692 2.94 279.446 3.204 279.242C3.468 279.038 3.744 278.87 4.032 278.738C4.32 278.606 4.614 278.51 4.914 278.45C5.226 278.39 5.52 278.36 5.796 278.36C6.456 278.36 7.056 278.474 7.596 278.702C8.148 278.918 8.622 279.224 9.018 279.62C9.414 280.016 9.72 280.484 9.936 281.024C10.164 281.564 10.278 282.152 10.278 282.788C10.278 283.424 10.164 284.012 9.936 284.552C9.72 285.092 9.414 285.56 9.018 285.956C8.622 286.352 8.148 286.664 7.596 286.892C7.056 287.108 6.456 287.216 5.796 287.216C5.52 287.216 5.226 287.186 4.914 287.126C4.614 287.066 4.32 286.97 4.032 286.838C3.744 286.706 3.468 286.538 3.204 286.334C2.94 286.13 2.712 285.884 2.52 285.596H2.484V292.184H1.296V278.576ZM18.8519 282.14C18.8519 281.336 18.6119 280.688 18.1319 280.196C17.6519 279.692 16.9799 279.44 16.1159 279.44C15.7319 279.44 15.3599 279.518 14.9999 279.674C14.6399 279.818 14.3219 280.016 14.0459 280.268C13.7819 280.52 13.5659 280.808 13.3979 281.132C13.2419 281.456 13.1639 281.792 13.1639 282.14H18.8519ZM13.1279 283.112C13.1639 283.532 13.2659 283.928 13.4339 284.3C13.6019 284.672 13.8239 284.996 14.0999 285.272C14.3759 285.536 14.6939 285.746 15.0539 285.902C15.4139 286.058 15.8039 286.136 16.2239 286.136C16.8599 286.136 17.4059 285.992 17.8619 285.704C18.3299 285.404 18.6839 285.062 18.9239 284.678L19.8419 285.434C19.3379 286.07 18.7799 286.526 18.1679 286.802C17.5679 287.078 16.9199 287.216 16.2239 287.216C15.5999 287.216 15.0179 287.108 14.4779 286.892C13.9499 286.664 13.4939 286.352 13.1099 285.956C12.7259 285.56 12.4199 285.092 12.1919 284.552C11.9759 284.012 11.8679 283.424 11.8679 282.788C11.8679 282.152 11.9759 281.564 12.1919 281.024C12.4079 280.484 12.7079 280.016 13.0919 279.62C13.4759 279.224 13.9259 278.918 14.4419 278.702C14.9579 278.474 15.5159 278.36 16.1159 278.36C16.7519 278.36 17.3219 278.474 17.8259 278.702C18.3299 278.93 18.7499 279.236 19.0859 279.62C19.4339 279.992 19.6979 280.436 19.8779 280.952C20.0579 281.456 20.1479 281.996 20.1479 282.572V283.112H13.1279ZM29.5199 282.788C29.5199 282.32 29.4419 281.882 29.2859 281.474C29.1419 281.066 28.9319 280.712 28.6559 280.412C28.3799 280.112 28.0439 279.878 27.6479 279.71C27.2639 279.53 26.8259 279.44 26.3339 279.44C25.8419 279.44 25.3979 279.53 25.0019 279.71C24.6179 279.878 24.2879 280.112 24.0119 280.412C23.7479 280.712 23.5379 281.066 23.3819 281.474C23.2379 281.882 23.1659 282.32 23.1659 282.788C23.1659 283.256 23.2379 283.694 23.3819 284.102C23.5379 284.51 23.7479 284.864 24.0119 285.164C24.2879 285.464 24.6179 285.704 25.0019 285.884C25.3979 286.052 25.8419 286.136 26.3339 286.136C26.8259 286.136 27.2639 286.052 27.6479 285.884C28.0439 285.704 28.3799 285.464 28.6559 285.164C28.9319 284.864 29.1419 284.51 29.2859 284.102C29.4419 283.694 29.5199 283.256 29.5199 282.788ZM30.8159 282.788C30.8159 283.424 30.7019 284.012 30.4739 284.552C30.2579 285.092 29.9519 285.56 29.5559 285.956C29.1599 286.352 28.6859 286.664 28.1339 286.892C27.5939 287.108 26.9939 287.216 26.3339 287.216C25.6859 287.216 25.0859 287.108 24.5339 286.892C23.9939 286.664 23.5259 286.352 23.1299 285.956C22.7339 285.56 22.4219 285.092 22.1939 284.552C21.9779 284.012 21.8699 283.424 21.8699 282.788C21.8699 282.152 21.9779 281.564 22.1939 281.024C22.4219 280.484 22.7339 280.016 23.1299 279.62C23.5259 279.224 23.9939 278.918 24.5339 278.702C25.0859 278.474 25.6859 278.36 26.3339 278.36C26.9939 278.36 27.5939 278.474 28.1339 278.702C28.6859 278.918 29.1599 279.224 29.5559 279.62C29.9519 280.016 30.2579 280.484 30.4739 281.024C30.7019 281.564 30.8159 282.152 30.8159 282.788ZM40.6578 282.788C40.6578 282.32 40.5798 281.882 40.4238 281.474C40.2798 281.066 40.0698 280.712 39.7938 280.412C39.5178 280.112 39.1818 279.878 38.7858 279.71C38.4018 279.53 37.9638 279.44 37.4718 279.44C36.9798 279.44 36.5298 279.53 36.1218 279.71C35.7138 279.878 35.3598 280.112 35.0598 280.412C34.7598 280.712 34.5258 281.066 34.3578 281.474C34.1898 281.882 34.1058 282.32 34.1058 282.788C34.1058 283.256 34.1898 283.694 34.3578 284.102C34.5258 284.51 34.7598 284.864 35.0598 285.164C35.3598 285.464 35.7138 285.704 36.1218 285.884C36.5298 286.052 36.9798 286.136 37.4718 286.136C37.9638 286.136 38.4018 286.052 38.7858 285.884C39.1818 285.704 39.5178 285.464 39.7938 285.164C40.0698 284.864 40.2798 284.51 40.4238 284.102C40.5798 283.694 40.6578 283.256 40.6578 282.788ZM32.9718 278.576H34.1598V279.98H34.1958C34.3878 279.692 34.6158 279.446 34.8798 279.242C35.1438 279.038 35.4198 278.87 35.7078 278.738C35.9958 278.606 36.2898 278.51 36.5898 278.45C36.9018 278.39 37.1958 278.36 37.4718 278.36C38.1318 278.36 38.7318 278.474 39.2718 278.702C39.8238 278.918 40.2978 279.224 40.6938 279.62C41.0898 280.016 41.3958 280.484 41.6118 281.024C41.8398 281.564 41.9538 282.152 41.9538 282.788C41.9538 283.424 41.8398 284.012 41.6118 284.552C41.3958 285.092 41.0898 285.56 40.6938 285.956C40.2978 286.352 39.8238 286.664 39.2718 286.892C38.7318 287.108 38.1318 287.216 37.4718 287.216C37.1958 287.216 36.9018 287.186 36.5898 287.126C36.2898 287.066 35.9958 286.97 35.7078 286.838C35.4198 286.706 35.1438 286.538 34.8798 286.334C34.6158 286.13 34.3878 285.884 34.1958 285.596H34.1598V292.184H32.9718V278.576ZM45.4337 287H44.2457V273.392H45.4337V287ZM54.8519 282.14C54.8519 281.336 54.6119 280.688 54.1319 280.196C53.6519 279.692 52.9799 279.44 52.1159 279.44C51.7319 279.44 51.3599 279.518 50.9999 279.674C50.6399 279.818 50.3219 280.016 50.0459 280.268C49.7819 280.52 49.5659 280.808 49.3979 281.132C49.2419 281.456 49.1639 281.792 49.1639 282.14H54.8519ZM49.1279 283.112C49.1639 283.532 49.2659 283.928 49.4339 284.3C49.6019 284.672 49.8239 284.996 50.0999 285.272C50.3759 285.536 50.6939 285.746 51.0539 285.902C51.4139 286.058 51.8039 286.136 52.2239 286.136C52.8599 286.136 53.4059 285.992 53.8619 285.704C54.3299 285.404 54.6839 285.062 54.9239 284.678L55.8419 285.434C55.3379 286.07 54.7799 286.526 54.1679 286.802C53.5679 287.078 52.9199 287.216 52.2239 287.216C51.5999 287.216 51.0179 287.108 50.4779 286.892C49.9499 286.664 49.4939 286.352 49.1099 285.956C48.7259 285.56 48.4199 285.092 48.1919 284.552C47.9759 284.012 47.8679 283.424 47.8679 282.788C47.8679 282.152 47.9759 281.564 48.1919 281.024C48.4079 280.484 48.7079 280.016 49.0919 279.62C49.4759 279.224 49.9259 278.918 50.4419 278.702C50.9579 278.474 51.5159 278.36 52.1159 278.36C52.7519 278.36 53.3219 278.474 53.8259 278.702C54.3299 278.93 54.7499 279.236 55.0859 279.62C55.4339 279.992 55.6979 280.436 55.8779 280.952C56.0579 281.456 56.1479 281.996 56.1479 282.572V283.112H49.1279ZM68.0996 282.806C67.7996 282.806 67.4216 282.824 66.9656 282.86C66.5216 282.884 66.0896 282.956 65.6696 283.076C65.2616 283.184 64.9076 283.358 64.6076 283.598C64.3196 283.838 64.1756 284.168 64.1756 284.588C64.1756 284.864 64.2296 285.104 64.3376 285.308C64.4576 285.5 64.6136 285.662 64.8056 285.794C64.9976 285.914 65.2076 286.004 65.4356 286.064C65.6756 286.112 65.9156 286.136 66.1556 286.136C66.5876 286.136 66.9596 286.064 67.2716 285.92C67.5956 285.776 67.8656 285.584 68.0816 285.344C68.2976 285.092 68.4536 284.804 68.5496 284.48C68.6576 284.144 68.7116 283.79 68.7116 283.418V282.806H68.0996ZM68.7116 281.834V281.618C68.7116 280.166 67.9916 279.44 66.5516 279.44C65.5676 279.44 64.7096 279.77 63.9776 280.43L63.2576 279.584C64.0496 278.768 65.2376 278.36 66.8216 278.36C67.2296 278.36 67.6196 278.42 67.9916 278.54C68.3756 278.66 68.7056 278.846 68.9816 279.098C69.2576 279.338 69.4796 279.644 69.6476 280.016C69.8156 280.388 69.8996 280.832 69.8996 281.348V285.11C69.8996 285.434 69.9116 285.776 69.9356 286.136C69.9716 286.484 70.0076 286.772 70.0436 287H68.8916C68.8556 286.796 68.8256 286.574 68.8016 286.334C68.7896 286.094 68.7836 285.86 68.7836 285.632H68.7476C68.3996 286.196 67.9856 286.604 67.5056 286.856C67.0376 287.096 66.4616 287.216 65.7776 287.216C65.4056 287.216 65.0456 287.162 64.6976 287.054C64.3496 286.958 64.0376 286.808 63.7616 286.604C63.4976 286.388 63.2816 286.13 63.1136 285.83C62.9576 285.518 62.8796 285.158 62.8796 284.75C62.8796 284.066 63.0536 283.532 63.4016 283.148C63.7616 282.752 64.2056 282.458 64.7336 282.266C65.2736 282.074 65.8436 281.954 66.4436 281.906C67.0556 281.858 67.6136 281.834 68.1176 281.834H68.7116ZM73.7796 278.576C73.8036 278.804 73.8156 279.032 73.8156 279.26C73.8276 279.476 73.8336 279.698 73.8336 279.926H73.8696C74.0016 279.698 74.1696 279.488 74.3736 279.296C74.5776 279.104 74.8056 278.942 75.0576 278.81C75.3096 278.666 75.5736 278.558 75.8496 278.486C76.1376 278.402 76.4196 278.36 76.6956 278.36C77.7756 278.36 78.5736 278.648 79.0896 279.224C79.6056 279.788 79.8636 280.598 79.8636 281.654V287H78.6756V282.338C78.6756 281.402 78.5136 280.688 78.1896 280.196C77.8656 279.692 77.2656 279.44 76.3896 279.44C76.3296 279.44 76.1616 279.464 75.8856 279.512C75.6096 279.56 75.3156 279.692 75.0036 279.908C74.7036 280.124 74.4336 280.448 74.1936 280.88C73.9536 281.312 73.8336 281.912 73.8336 282.68V287H72.6456V280.43C72.6456 280.202 72.6336 279.914 72.6096 279.566C72.5976 279.218 72.5796 278.888 72.5556 278.576H73.7796ZM83.3676 282.788C83.3676 283.256 83.4396 283.694 83.5836 284.102C83.7396 284.51 83.9556 284.864 84.2316 285.164C84.5076 285.464 84.8376 285.704 85.2216 285.884C85.6176 286.052 86.0616 286.136 86.5536 286.136C87.0336 286.136 87.4776 286.052 87.8856 285.884C88.3056 285.704 88.6656 285.464 88.9656 285.164C89.2656 284.864 89.4996 284.51 89.6676 284.102C89.8356 283.694 89.9196 283.256 89.9196 282.788C89.9196 282.32 89.8356 281.882 89.6676 281.474C89.4996 281.066 89.2656 280.712 88.9656 280.412C88.6656 280.112 88.3056 279.878 87.8856 279.71C87.4776 279.53 87.0336 279.44 86.5536 279.44C86.0616 279.44 85.6176 279.53 85.2216 279.71C84.8376 279.878 84.5076 280.112 84.2316 280.412C83.9556 280.712 83.7396 281.066 83.5836 281.474C83.4396 281.882 83.3676 282.32 83.3676 282.788ZM91.0536 287H89.8656V285.596H89.8296C89.6376 285.884 89.4096 286.13 89.1456 286.334C88.8816 286.538 88.6056 286.706 88.3176 286.838C88.0296 286.97 87.7296 287.066 87.4176 287.126C87.1176 287.186 86.8296 287.216 86.5536 287.216C85.8936 287.216 85.2876 287.108 84.7356 286.892C84.1956 286.664 83.7276 286.352 83.3316 285.956C82.9356 285.56 82.6236 285.092 82.3956 284.552C82.1796 284.012 82.0716 283.424 82.0716 282.788C82.0716 282.152 82.1796 281.564 82.3956 281.024C82.6236 280.484 82.9356 280.016 83.3316 279.62C83.7276 279.224 84.1956 278.918 84.7356 278.702C85.2876 278.474 85.8936 278.36 86.5536 278.36C86.8296 278.36 87.1176 278.39 87.4176 278.45C87.7296 278.51 88.0296 278.606 88.3176 278.738C88.6056 278.87 88.8816 279.038 89.1456 279.242C89.4096 279.446 89.6376 279.692 89.8296 279.98H89.8656V273.392H91.0536V287ZM105.213 282.14C105.213 281.336 104.973 280.688 104.493 280.196C104.013 279.692 103.341 279.44 102.477 279.44C102.093 279.44 101.721 279.518 101.361 279.674C101.001 279.818 100.683 280.016 100.407 280.268C100.143 280.52 99.9272 280.808 99.7592 281.132C99.6032 281.456 99.5252 281.792 99.5252 282.14H105.213ZM99.4892 283.112C99.5252 283.532 99.6272 283.928 99.7952 284.3C99.9632 284.672 100.185 284.996 100.461 285.272C100.737 285.536 101.055 285.746 101.415 285.902C101.775 286.058 102.165 286.136 102.585 286.136C103.221 286.136 103.767 285.992 104.223 285.704C104.691 285.404 105.045 285.062 105.285 284.678L106.203 285.434C105.699 286.07 105.141 286.526 104.529 286.802C103.929 287.078 103.281 287.216 102.585 287.216C101.961 287.216 101.379 287.108 100.839 286.892C100.311 286.664 99.8552 286.352 99.4712 285.956C99.0872 285.56 98.7812 285.092 98.5532 284.552C98.3372 284.012 98.2292 283.424 98.2292 282.788C98.2292 282.152 98.3372 281.564 98.5532 281.024C98.7692 280.484 99.0692 280.016 99.4532 279.62C99.8372 279.224 100.287 278.918 100.803 278.702C101.319 278.474 101.877 278.36 102.477 278.36C103.113 278.36 103.683 278.474 104.187 278.702C104.691 278.93 105.111 279.236 105.447 279.62C105.795 279.992 106.059 280.436 106.239 280.952C106.419 281.456 106.509 281.996 106.509 282.572V283.112H99.4892ZM109.797 278.576C109.821 278.804 109.833 279.032 109.833 279.26C109.845 279.476 109.851 279.698 109.851 279.926H109.887C110.019 279.698 110.187 279.488 110.391 279.296C110.595 279.104 110.823 278.942 111.075 278.81C111.327 278.666 111.591 278.558 111.867 278.486C112.155 278.402 112.437 278.36 112.713 278.36C113.793 278.36 114.591 278.648 115.107 279.224C115.623 279.788 115.881 280.598 115.881 281.654V287H114.693V282.338C114.693 281.402 114.531 280.688 114.207 280.196C113.883 279.692 113.283 279.44 112.407 279.44C112.347 279.44 112.179 279.464 111.903 279.512C111.627 279.56 111.333 279.692 111.021 279.908C110.721 280.124 110.451 280.448 110.211 280.88C109.971 281.312 109.851 281.912 109.851 282.68V287H108.663V280.43C108.663 280.202 108.651 279.914 108.627 279.566C108.615 279.218 108.597 278.888 108.573 278.576H109.797ZM120.393 275.336C120.393 275.588 120.303 275.798 120.123 275.966C119.943 276.122 119.745 276.2 119.529 276.2C119.313 276.2 119.115 276.122 118.935 275.966C118.755 275.798 118.665 275.588 118.665 275.336C118.665 275.084 118.755 274.88 118.935 274.724C119.115 274.556 119.313 274.472 119.529 274.472C119.745 274.472 119.943 274.556 120.123 274.724C120.303 274.88 120.393 275.084 120.393 275.336ZM116.973 290.114L117.027 290.132C117.123 290.156 117.231 290.18 117.351 290.204C117.459 290.228 117.561 290.24 117.657 290.24C117.945 290.24 118.173 290.186 118.341 290.078C118.521 289.97 118.653 289.826 118.737 289.646C118.821 289.478 118.875 289.292 118.899 289.088C118.923 288.884 118.935 288.68 118.935 288.476V278.576H120.123V288.674C120.123 288.794 120.117 288.998 120.105 289.286C120.093 289.586 120.015 289.886 119.871 290.186C119.739 290.486 119.505 290.75 119.169 290.978C118.845 291.206 118.371 291.32 117.747 291.32C117.411 291.32 117.099 291.26 116.811 291.14L116.973 290.114ZM130.207 282.788C130.207 282.32 130.129 281.882 129.973 281.474C129.829 281.066 129.619 280.712 129.343 280.412C129.067 280.112 128.731 279.878 128.335 279.71C127.951 279.53 127.513 279.44 127.021 279.44C126.529 279.44 126.085 279.53 125.689 279.71C125.305 279.878 124.975 280.112 124.699 280.412C124.435 280.712 124.225 281.066 124.069 281.474C123.925 281.882 123.853 282.32 123.853 282.788C123.853 283.256 123.925 283.694 124.069 284.102C124.225 284.51 124.435 284.864 124.699 285.164C124.975 285.464 125.305 285.704 125.689 285.884C126.085 286.052 126.529 286.136 127.021 286.136C127.513 286.136 127.951 286.052 128.335 285.884C128.731 285.704 129.067 285.464 129.343 285.164C129.619 284.864 129.829 284.51 129.973 284.102C130.129 283.694 130.207 283.256 130.207 282.788ZM131.503 282.788C131.503 283.424 131.389 284.012 131.161 284.552C130.945 285.092 130.639 285.56 130.243 285.956C129.847 286.352 129.373 286.664 128.821 286.892C128.281 287.108 127.681 287.216 127.021 287.216C126.373 287.216 125.773 287.108 125.221 286.892C124.681 286.664 124.213 286.352 123.817 285.956C123.421 285.56 123.109 285.092 122.881 284.552C122.665 284.012 122.557 283.424 122.557 282.788C122.557 282.152 122.665 281.564 122.881 281.024C123.109 280.484 123.421 280.016 123.817 279.62C124.213 279.224 124.681 278.918 125.221 278.702C125.773 278.474 126.373 278.36 127.021 278.36C127.681 278.36 128.281 278.474 128.821 278.702C129.373 278.918 129.847 279.224 130.243 279.62C130.639 280.016 130.945 280.484 131.161 281.024C131.389 281.564 131.503 282.152 131.503 282.788ZM136.791 285.542L139.365 278.576H140.805L136.593 289.196C136.341 289.844 136.017 290.36 135.621 290.744C135.237 291.128 134.679 291.32 133.947 291.32C133.767 291.32 133.581 291.314 133.389 291.302C133.209 291.29 133.029 291.254 132.849 291.194L132.975 290.042C133.227 290.174 133.527 290.24 133.875 290.24C134.295 290.24 134.625 290.108 134.865 289.844C135.105 289.58 135.315 289.208 135.495 288.728L136.107 287.108L132.651 278.576H134.145L136.791 285.542ZM154.571 282.788C154.571 282.32 154.493 281.882 154.337 281.474C154.193 281.066 153.983 280.712 153.707 280.412C153.431 280.112 153.095 279.878 152.699 279.71C152.315 279.53 151.877 279.44 151.385 279.44C150.893 279.44 150.449 279.53 150.053 279.71C149.669 279.878 149.339 280.112 149.063 280.412C148.799 280.712 148.589 281.066 148.433 281.474C148.289 281.882 148.217 282.32 148.217 282.788C148.217 283.256 148.289 283.694 148.433 284.102C148.589 284.51 148.799 284.864 149.063 285.164C149.339 285.464 149.669 285.704 150.053 285.884C150.449 286.052 150.893 286.136 151.385 286.136C151.877 286.136 152.315 286.052 152.699 285.884C153.095 285.704 153.431 285.464 153.707 285.164C153.983 284.864 154.193 284.51 154.337 284.102C154.493 283.694 154.571 283.256 154.571 282.788ZM155.867 282.788C155.867 283.424 155.753 284.012 155.525 284.552C155.309 285.092 155.003 285.56 154.607 285.956C154.211 286.352 153.737 286.664 153.185 286.892C152.645 287.108 152.045 287.216 151.385 287.216C150.737 287.216 150.137 287.108 149.585 286.892C149.045 286.664 148.577 286.352 148.181 285.956C147.785 285.56 147.473 285.092 147.245 284.552C147.029 284.012 146.921 283.424 146.921 282.788C146.921 282.152 147.029 281.564 147.245 281.024C147.473 280.484 147.785 280.016 148.181 279.62C148.577 279.224 149.045 278.918 149.585 278.702C150.137 278.474 150.737 278.36 151.385 278.36C152.045 278.36 152.645 278.474 153.185 278.702C153.737 278.918 154.211 279.224 154.607 279.62C155.003 280.016 155.309 280.484 155.525 281.024C155.753 281.564 155.867 282.152 155.867 282.788ZM162.379 279.656H159.949V284.624C159.949 284.936 159.979 285.194 160.039 285.398C160.099 285.59 160.183 285.74 160.291 285.848C160.399 285.956 160.525 286.034 160.669 286.082C160.825 286.118 160.993 286.136 161.173 286.136C161.377 286.136 161.587 286.106 161.803 286.046C162.019 285.986 162.217 285.908 162.397 285.812L162.451 286.91C162.007 287.114 161.473 287.216 160.849 287.216C160.621 287.216 160.381 287.186 160.129 287.126C159.889 287.066 159.667 286.952 159.463 286.784C159.259 286.616 159.091 286.388 158.959 286.1C158.827 285.812 158.761 285.434 158.761 284.966V279.656H156.979V278.576H158.761V276.2H159.949V278.576H162.379V279.656ZM163.999 273.392H165.187V279.926H165.223C165.355 279.698 165.523 279.488 165.727 279.296C165.931 279.104 166.159 278.942 166.411 278.81C166.663 278.666 166.927 278.558 167.203 278.486C167.491 278.402 167.773 278.36 168.049 278.36C169.129 278.36 169.927 278.648 170.443 279.224C170.959 279.788 171.217 280.598 171.217 281.654V287H170.029V282.338C170.029 281.402 169.867 280.688 169.543 280.196C169.219 279.692 168.619 279.44 167.743 279.44C167.683 279.44 167.515 279.464 167.239 279.512C166.963 279.56 166.669 279.692 166.357 279.908C166.057 280.124 165.787 280.448 165.547 280.88C165.307 281.312 165.187 281.912 165.187 282.68V287H163.999V273.392ZM180.553 282.14C180.553 281.336 180.313 280.688 179.833 280.196C179.353 279.692 178.681 279.44 177.817 279.44C177.433 279.44 177.061 279.518 176.701 279.674C176.341 279.818 176.023 280.016 175.747 280.268C175.483 280.52 175.267 280.808 175.099 281.132C174.943 281.456 174.865 281.792 174.865 282.14H180.553ZM174.829 283.112C174.865 283.532 174.967 283.928 175.135 284.3C175.303 284.672 175.525 284.996 175.801 285.272C176.077 285.536 176.395 285.746 176.755 285.902C177.115 286.058 177.505 286.136 177.925 286.136C178.561 286.136 179.107 285.992 179.563 285.704C180.031 285.404 180.385 285.062 180.625 284.678L181.543 285.434C181.039 286.07 180.481 286.526 179.869 286.802C179.269 287.078 178.621 287.216 177.925 287.216C177.301 287.216 176.719 287.108 176.179 286.892C175.651 286.664 175.195 286.352 174.811 285.956C174.427 285.56 174.121 285.092 173.893 284.552C173.677 284.012 173.569 283.424 173.569 282.788C173.569 282.152 173.677 281.564 173.893 281.024C174.109 280.484 174.409 280.016 174.793 279.62C175.177 279.224 175.627 278.918 176.143 278.702C176.659 278.474 177.217 278.36 177.817 278.36C178.453 278.36 179.023 278.474 179.527 278.702C180.031 278.93 180.451 279.236 180.787 279.62C181.135 279.992 181.399 280.436 181.579 280.952C181.759 281.456 181.849 281.996 181.849 282.572V283.112H174.829ZM184.129 281.204C184.129 280.832 184.117 280.454 184.093 280.07C184.081 279.686 184.069 279.188 184.057 278.576H185.227V280.142H185.263C185.347 279.914 185.467 279.698 185.623 279.494C185.779 279.278 185.965 279.086 186.181 278.918C186.409 278.75 186.667 278.618 186.955 278.522C187.255 278.414 187.591 278.36 187.963 278.36C188.299 278.36 188.593 278.396 188.845 278.468L188.611 279.638C188.455 279.578 188.227 279.548 187.927 279.548C187.471 279.548 187.081 279.638 186.757 279.818C186.433 279.986 186.163 280.208 185.947 280.484C185.731 280.748 185.569 281.036 185.461 281.348C185.365 281.66 185.317 281.96 185.317 282.248V287H184.129V281.204ZM201.127 280.556C200.923 280.244 200.635 279.98 200.263 279.764C199.903 279.548 199.489 279.44 199.021 279.44C198.529 279.428 198.085 279.506 197.689 279.674C197.305 279.842 196.975 280.076 196.699 280.376C196.423 280.676 196.213 281.036 196.069 281.456C195.925 281.864 195.853 282.308 195.853 282.788C195.853 283.268 195.925 283.718 196.069 284.138C196.213 284.546 196.423 284.9 196.699 285.2C196.975 285.5 197.305 285.734 197.689 285.902C198.085 286.07 198.529 286.148 199.021 286.136C199.489 286.136 199.903 286.028 200.263 285.812C200.635 285.596 200.923 285.332 201.127 285.02L202.099 285.758C201.679 286.25 201.205 286.616 200.677 286.856C200.149 287.084 199.597 287.204 199.021 287.216C198.337 287.228 197.719 287.126 197.167 286.91C196.615 286.682 196.141 286.37 195.745 285.974C195.361 285.578 195.067 285.11 194.863 284.57C194.659 284.018 194.557 283.424 194.557 282.788C194.557 282.152 194.659 281.564 194.863 281.024C195.067 280.472 195.361 279.998 195.745 279.602C196.141 279.206 196.615 278.9 197.167 278.684C197.719 278.456 198.337 278.348 199.021 278.36C199.597 278.372 200.149 278.498 200.677 278.738C201.205 278.966 201.679 279.326 202.099 279.818L201.127 280.556ZM203.799 281.204C203.799 280.832 203.787 280.454 203.763 280.07C203.751 279.686 203.739 279.188 203.727 278.576H204.897V280.142H204.933C205.017 279.914 205.137 279.698 205.293 279.494C205.449 279.278 205.635 279.086 205.851 278.918C206.079 278.75 206.337 278.618 206.625 278.522C206.925 278.414 207.261 278.36 207.633 278.36C207.969 278.36 208.263 278.396 208.515 278.468L208.281 279.638C208.125 279.578 207.897 279.548 207.597 279.548C207.141 279.548 206.751 279.638 206.427 279.818C206.103 279.986 205.833 280.208 205.617 280.484C205.401 280.748 205.239 281.036 205.131 281.348C205.035 281.66 204.987 281.96 204.987 282.248V287H203.799V281.204ZM215.885 282.14C215.885 281.336 215.645 280.688 215.165 280.196C214.685 279.692 214.013 279.44 213.149 279.44C212.765 279.44 212.393 279.518 212.033 279.674C211.673 279.818 211.355 280.016 211.079 280.268C210.815 280.52 210.599 280.808 210.431 281.132C210.275 281.456 210.197 281.792 210.197 282.14H215.885ZM210.161 283.112C210.197 283.532 210.299 283.928 210.467 284.3C210.635 284.672 210.857 284.996 211.133 285.272C211.409 285.536 211.727 285.746 212.087 285.902C212.447 286.058 212.837 286.136 213.257 286.136C213.893 286.136 214.439 285.992 214.895 285.704C215.363 285.404 215.717 285.062 215.957 284.678L216.875 285.434C216.371 286.07 215.813 286.526 215.201 286.802C214.601 287.078 213.953 287.216 213.257 287.216C212.633 287.216 212.051 287.108 211.511 286.892C210.983 286.664 210.527 286.352 210.143 285.956C209.759 285.56 209.453 285.092 209.225 284.552C209.009 284.012 208.901 283.424 208.901 282.788C208.901 282.152 209.009 281.564 209.225 281.024C209.441 280.484 209.741 280.016 210.125 279.62C210.509 279.224 210.959 278.918 211.475 278.702C211.991 278.474 212.549 278.36 213.149 278.36C213.785 278.36 214.355 278.474 214.859 278.702C215.363 278.93 215.783 279.236 216.119 279.62C216.467 279.992 216.731 280.436 216.911 280.952C217.091 281.456 217.181 281.996 217.181 282.572V283.112H210.161ZM224.123 282.806C223.823 282.806 223.445 282.824 222.989 282.86C222.545 282.884 222.113 282.956 221.693 283.076C221.285 283.184 220.931 283.358 220.631 283.598C220.343 283.838 220.199 284.168 220.199 284.588C220.199 284.864 220.253 285.104 220.361 285.308C220.481 285.5 220.637 285.662 220.829 285.794C221.021 285.914 221.231 286.004 221.459 286.064C221.699 286.112 221.939 286.136 222.179 286.136C222.611 286.136 222.983 286.064 223.295 285.92C223.619 285.776 223.889 285.584 224.105 285.344C224.321 285.092 224.477 284.804 224.573 284.48C224.681 284.144 224.735 283.79 224.735 283.418V282.806H224.123ZM224.735 281.834V281.618C224.735 280.166 224.015 279.44 222.575 279.44C221.591 279.44 220.733 279.77 220.001 280.43L219.281 279.584C220.073 278.768 221.261 278.36 222.845 278.36C223.253 278.36 223.643 278.42 224.015 278.54C224.399 278.66 224.729 278.846 225.005 279.098C225.281 279.338 225.503 279.644 225.671 280.016C225.839 280.388 225.923 280.832 225.923 281.348V285.11C225.923 285.434 225.935 285.776 225.959 286.136C225.995 286.484 226.031 286.772 226.067 287H224.915C224.879 286.796 224.849 286.574 224.825 286.334C224.813 286.094 224.807 285.86 224.807 285.632H224.771C224.423 286.196 224.009 286.604 223.529 286.856C223.061 287.096 222.485 287.216 221.801 287.216C221.429 287.216 221.069 287.162 220.721 287.054C220.373 286.958 220.061 286.808 219.785 286.604C219.521 286.388 219.305 286.13 219.137 285.83C218.981 285.518 218.903 285.158 218.903 284.75C218.903 284.066 219.077 283.532 219.425 283.148C219.785 282.752 220.229 282.458 220.757 282.266C221.297 282.074 221.867 281.954 222.467 281.906C223.079 281.858 223.637 281.834 224.141 281.834H224.735ZM233.025 279.656H230.595V284.624C230.595 284.936 230.625 285.194 230.685 285.398C230.745 285.59 230.829 285.74 230.937 285.848C231.045 285.956 231.171 286.034 231.315 286.082C231.471 286.118 231.639 286.136 231.819 286.136C232.023 286.136 232.233 286.106 232.449 286.046C232.665 285.986 232.863 285.908 233.043 285.812L233.097 286.91C232.653 287.114 232.119 287.216 231.495 287.216C231.267 287.216 231.027 287.186 230.775 287.126C230.535 287.066 230.313 286.952 230.109 286.784C229.905 286.616 229.737 286.388 229.605 286.1C229.473 285.812 229.407 285.434 229.407 284.966V279.656H227.625V278.576H229.407V276.2H230.595V278.576H233.025V279.656ZM236.374 275.336C236.374 275.588 236.284 275.798 236.104 275.966C235.924 276.122 235.726 276.2 235.51 276.2C235.294 276.2 235.096 276.122 234.916 275.966C234.736 275.798 234.646 275.588 234.646 275.336C234.646 275.084 234.736 274.88 234.916 274.724C235.096 274.556 235.294 274.472 235.51 274.472C235.726 274.472 235.924 274.556 236.104 274.724C236.284 274.88 236.374 275.084 236.374 275.336ZM236.104 287H234.916V278.576H236.104V287ZM246.188 282.788C246.188 282.32 246.11 281.882 245.954 281.474C245.81 281.066 245.6 280.712 245.324 280.412C245.048 280.112 244.712 279.878 244.316 279.71C243.932 279.53 243.494 279.44 243.002 279.44C242.51 279.44 242.066 279.53 241.67 279.71C241.286 279.878 240.956 280.112 240.68 280.412C240.416 280.712 240.206 281.066 240.05 281.474C239.906 281.882 239.834 282.32 239.834 282.788C239.834 283.256 239.906 283.694 240.05 284.102C240.206 284.51 240.416 284.864 240.68 285.164C240.956 285.464 241.286 285.704 241.67 285.884C242.066 286.052 242.51 286.136 243.002 286.136C243.494 286.136 243.932 286.052 244.316 285.884C244.712 285.704 245.048 285.464 245.324 285.164C245.6 284.864 245.81 284.51 245.954 284.102C246.11 283.694 246.188 283.256 246.188 282.788ZM247.484 282.788C247.484 283.424 247.37 284.012 247.142 284.552C246.926 285.092 246.62 285.56 246.224 285.956C245.828 286.352 245.354 286.664 244.802 286.892C244.262 287.108 243.662 287.216 243.002 287.216C242.354 287.216 241.754 287.108 241.202 286.892C240.662 286.664 240.194 286.352 239.798 285.956C239.402 285.56 239.09 285.092 238.862 284.552C238.646 284.012 238.538 283.424 238.538 282.788C238.538 282.152 238.646 281.564 238.862 281.024C239.09 280.484 239.402 280.016 239.798 279.62C240.194 279.224 240.662 278.918 241.202 278.702C241.754 278.474 242.354 278.36 243.002 278.36C243.662 278.36 244.262 278.474 244.802 278.702C245.354 278.918 245.828 279.224 246.224 279.62C246.62 280.016 246.926 280.484 247.142 281.024C247.37 281.564 247.484 282.152 247.484 282.788ZM250.774 278.576C250.798 278.804 250.81 279.032 250.81 279.26C250.822 279.476 250.828 279.698 250.828 279.926H250.864C250.996 279.698 251.164 279.488 251.368 279.296C251.572 279.104 251.8 278.942 252.052 278.81C252.304 278.666 252.568 278.558 252.844 278.486C253.132 278.402 253.414 278.36 253.69 278.36C254.77 278.36 255.568 278.648 256.084 279.224C256.6 279.788 256.858 280.598 256.858 281.654V287H255.67V282.338C255.67 281.402 255.508 280.688 255.184 280.196C254.86 279.692 254.26 279.44 253.384 279.44C253.324 279.44 253.156 279.464 252.88 279.512C252.604 279.56 252.31 279.692 251.998 279.908C251.698 280.124 251.428 280.448 251.188 280.88C250.948 281.312 250.828 281.912 250.828 282.68V287H249.64V280.43C249.64 280.202 249.628 279.914 249.604 279.566C249.592 279.218 249.574 278.888 249.55 278.576H250.774ZM264.106 280.574C263.926 280.226 263.686 279.95 263.386 279.746C263.086 279.542 262.72 279.44 262.288 279.44C262.084 279.44 261.874 279.464 261.658 279.512C261.454 279.56 261.268 279.638 261.1 279.746C260.932 279.842 260.794 279.968 260.686 280.124C260.59 280.28 260.542 280.472 260.542 280.7C260.542 281.096 260.68 281.384 260.956 281.564C261.232 281.744 261.646 281.9 262.198 282.032L263.404 282.32C263.992 282.452 264.478 282.722 264.862 283.13C265.258 283.526 265.456 284.024 265.456 284.624C265.456 285.08 265.36 285.476 265.168 285.812C264.988 286.136 264.742 286.406 264.43 286.622C264.13 286.826 263.782 286.976 263.386 287.072C262.99 287.168 262.588 287.216 262.18 287.216C261.532 287.216 260.926 287.096 260.362 286.856C259.81 286.604 259.336 286.178 258.94 285.578L259.966 284.876C260.206 285.26 260.506 285.566 260.866 285.794C261.238 286.022 261.676 286.136 262.18 286.136C262.42 286.136 262.66 286.112 262.9 286.064C263.14 286.004 263.35 285.92 263.53 285.812C263.722 285.692 263.872 285.542 263.98 285.362C264.1 285.182 264.16 284.972 264.16 284.732C264.16 284.312 264.004 284.012 263.692 283.832C263.38 283.64 263.002 283.49 262.558 283.382L261.406 283.112C261.262 283.076 261.064 283.016 260.812 282.932C260.572 282.848 260.332 282.722 260.092 282.554C259.864 282.386 259.666 282.17 259.498 281.906C259.33 281.63 259.246 281.294 259.246 280.898C259.246 280.466 259.33 280.088 259.498 279.764C259.678 279.44 259.912 279.176 260.2 278.972C260.5 278.768 260.836 278.618 261.208 278.522C261.58 278.414 261.964 278.36 262.36 278.36C262.948 278.36 263.494 278.474 263.998 278.702C264.502 278.93 264.892 279.32 265.168 279.872L264.106 280.574Z" fill="white"/>
<defs>
<filter id="filter0_f" x="53.0737" y="91.6243" width="258.369" height="166.736" filterUnits="userSpaceOnUse" color-interpolation-filters="sRGB">
<feFlood flood-opacity="0" result="BackgroundImageFix"/>
<feBlend mode="normal" in="SourceGraphic" in2="BackgroundImageFix" result="shape"/>
<feGaussianBlur stdDeviation="15" result="effect1_foregroundBlur"/>
</filter>
</defs>
</svg>
